<svg xmlns="http://www.w3.org/2000/svg" width="430" height="320" viewBox="0 0 430 320" text-rendering="geometricPrecision">
  <marker id="arrowhead" markerWidth="16" markerHeight="16" viewBox="0 0 10 10" refX="0" refY="5" orient="auto" markerUnits="userSpaceOnUse" shape-rendering="geometricPrecision">
    <path d="M0,2 8,5 0,8 z" stroke-linecap="round"/>
  </marker>
  <marker id="closed" markerWidth="8" markerHeight="8" viewBox="0 0 8 8" refX="4" refY="4" markerUnits="userSpaceOnUse" overflow="visible">
    <circle cx="4" cy="4" r="4" fill="blue"/>
  </marker>
  <marker id="open" markerWidth="8" markerHeight="8" viewBox="0 0 8 8" refX="4" refY="4" markerUnits="userSpaceOnUse" overflow="visible">
    <circle cx="4" cy="4" r="4" fill="blue"/>
    <circle cx="4" cy="4" r="2" fill="#f4f4f4"/>
  </marker>
  <linearGradient id="fade" gradientUnits="userSpaceOnUse" x1="160" y1="0" x2="340" y2="0">
    <stop offset="0" stop-color="blue"/>
    <stop offset="0.75" stop-color="blue"/>
    <stop offset="1" stop-color="blue" stop-opacity="0"/>
  </linearGradient>
  <rect width="430" height="320" fill="#f4f4f4"/>
  <g transform="translate(10,4)">
    <g stroke="#ccc" stroke-dasharray="6 2" shape-rendering="optimizeSpeed">
      <path d="M20,260 H360
               M20,240 H360
               M20,220 H360
               M20,200 H360
               M20,180 H360
               M20,160 H360
               M20,140 H360
               M20,120 H360
               M20,100 H360
               M20, 80 H360
               M20, 60 H360"/>
    </g>
    <g fill="none" stroke="black" shape-rendering="optimizeSpeed">
      <path d="M20,260 h-6
               M20,240 h-6
               M20,220 h-6
               M20,200 h-6
               M20,180 h-6
               M20,160 h-6
               M20,140 h-6
               M20,120 h-6
               M20,100 h-6
               M20, 80 h-6
               M20, 60 h-6"/>
      <path d="M60,280 v6
               M100,280 v6
               M140,280 v6
               M180,280 v6
               M220,280 v6
               M260,280 v6
               M300,280 v6
               M340,280 v6"/>
    </g>
    <g font-size="12px" text-anchor="middle" font-family="Menlo, monospace">
      <g text-anchor="middle">
        <text x="20" y="298">0</text>
        <text x="60" y="298">2</text>
        <text x="100" y="298">4</text>
        <text x="140" y="298">6</text>
        <text x="180" y="298">8</text>
        <text x="220" y="298">10</text>
        <text x="260" y="298">12</text>
        <text x="300" y="298">14</text>
        <text x="340" y="298">16</text>
      </g>

      <g text-anchor="end">
        <text x="12" y="284">0</text>
        <text x="12" y="264">1</text>
        <text x="12" y="244">2</text>
        <text x="12" y="224">3</text>
        <text x="12" y="204">4</text>
        <text x="12" y="184">5</text>
        <text x="12" y="164">6</text>
        <text x="12" y="144">7</text>
        <text x="12" y="124">8</text>
        <text x="12" y="104">9</text>
        <text x="12" y="84">10</text>
        <text x="12" y="64">11</text>
      </g>
    </g>
    <g stroke="black" stroke-width="2" fill="none" marker-end="url(#arrowhead)" shape-rendering="optimizeSpeed">
      <path d="M20,286 V40"/>
      <path d="M14,280 H360"/>
    </g>
    <g transform="scale(1,-1) translate(20,-280)" fill="none" stroke="blue" stroke-width="3">
      <path d="M0,40 80,60" marker-start="url(#closed)" marker-end="url(#open)"/>
      <path d="M80,100 160,120" marker-start="url(#closed)" marker-end="url(#open)"/>
      <path d="M160,160 240,180 340,180" marker-start="url(#closed)" stroke="url(#fade)"/>
    </g>
    <g font-size="15px" font-style="italic" font-family="serif">
      <text x="380" y="284">time</text>
      <text x="20" y="20" text-anchor="middle">scale</text>
    </g>
  </g>
</svg>
