<?xml version="1.0" encoding="UTF-8" standalone="no"?>
<svg width="600" height="150" viewBox="0 0 600 150"
     xmlns="http://www.w3.org/2000/svg" version="1.1">
  <desc>Baseline description.</desc>

  <path d="m  45,100 160,0" style="fill:none;stroke:red" />
  <path d="m 240, 60 120,0" style="fill:none;stroke:red" />
  <rect x="411" y="36" width="64" height="64" style="fill:none;stroke:#add8e6"/>
  <rect x="475" y="36" width="64" height="64" style="fill:none;stroke:#add8e6"/>
  <path d="m 400,100 150,0" style="fill:none;stroke:red" />

  <!-- Original text
  <text x="125" y="100"  style="font-size:64px;font-family:sans-serif;text-anchor:middle">Word</text>
  <text x="300" y="100"  style="font-size:64px;font-family:sans-serif;text-anchor:middle">शब्द</text>
  <text x="475" y="92"   style="font-size:64px;font-family:'VL Gothic';text-anchor:middle">単語</text>
  -->
  
  <g>
    <path d="m 44.875,53.3438 6.375,0 9.8125,39.4375 9.7813,-39.4375 7.0937,0 9.8125,39.4375 9.7813,-39.4375 6.4067,0 -11.7192,46.6562 -7.9375,0 -9.8438,-40.5 -9.9375,40.5 -7.9375,0 -11.6875,-46.6562 z"/>
    <path d="m 121.844,69.0313 q -4.625,0 -7.313,3.625 -2.687,3.5937 -2.687,9.875 0,6.2812 2.656,9.9062 2.688,3.5938 7.344,3.5938 4.594,0 7.281,-3.625 2.687,-3.625 2.687,-9.875 0,-6.2188 -2.687,-9.8438 -2.687,-3.6562 -7.281,-3.6562 z m 0,-4.875 q 7.5,0 11.781,4.875 4.281,4.875 4.281,13.5 0,8.5937 -4.281,13.5 -4.281,4.8747 -11.781,4.8747 -7.531,0 -11.813,-4.8747 -4.25,-4.9063 -4.25,-13.5 0,-8.625 4.25,-13.5 4.282,-4.875 11.813,-4.875 z"/>
    <path d="m 167.687,70.375 q -0.968,-0.5625 -2.125,-0.8125 -1.125,-0.2812 -2.5,-0.2812 -4.875,0 -7.5,3.1875 -2.593,3.1562 -2.593,9.0937 l 0,18.4375 -5.782,0 0,-35 5.782,0 0,5.4375 q 1.812,-3.1875 4.718,-4.7187 2.907,-1.5625 7.063,-1.5625 0.594,0 1.312,0.094 0.719,0.062 1.594,0.2188 l 0.03,5.9062 z"/>
    <path d="m 195.687,70.3125 0,-18.9375 5.75,0 0,48.625 -5.75,0 0,-5.25 q -1.812,3.125 -4.593,4.6563 -2.75,1.4997 -6.625,1.4997 -6.344,0 -10.344,-5.0622 -3.969,-5.0625 -3.969,-13.3125 0,-8.25 3.969,-13.3125 4,-5.0625 10.344,-5.0625 3.875,0 6.625,1.5312 2.781,1.5 4.593,4.625 z m -19.593,12.2188 q 0,6.3437 2.593,9.9687 2.625,3.5938 7.188,3.5938 4.562,0 7.187,-3.5938 2.625,-3.625 2.625,-9.9687 0,-6.3438 -2.625,-9.9375 -2.625,-3.625 -7.187,-3.625 -4.563,0 -7.188,3.625 -2.593,3.5937 -2.593,9.9375 z"/>
  </g>
  <g>
    <path d="m 274.062,62.125 0,-3.75 19.563,0 0,3.75 -7.063,0 0,37.875 -4.187,0 0,-37.875 -8.313,0 z m -11.25,9.5625 q 2.063,0 3.875,-1.25 1.813,-1.25 2.813,-3.3125 -0.938,-2.4375 -2.563,-3.9375 -1.562,-1.5 -3.312,-1.5 -2.063,0 -3.563,1.625 -1.437,1.5625 -1.437,3.8125 0,1.9375 1.187,3.25 1.25,1.3125 3,1.3125 z m 8.313,28.3125 -18.688,-15.8125 2.063,-2.9375 q 1.812,1.5 2.875,2.25 1.062,0.6875 1.687,0.6875 4.688,0 7.938,-3.625 3.312,-3.6875 3.312,-8.875 -1.062,1.9375 -3.125,3.0625 -2.062,1.125 -4.375,1.125 -3.437,0 -5.875,-2.5625 -2.437,-2.625 -2.437,-6.1875 0,-4 2.625,-6.75 2.687,-2.8125 6.5,-2.8125 4.5,0 7.687,4.1875 3.188,4.125 3.188,9.9375 0,6.4375 -3.813,10.9375 -3.812,4.5 -9.125,4.5 l 12.063,9.9375 -2.5,2.9375 z" />
    <path d="m 291.937,62.125 0,-3.75 24.563,0 0,3.75 -24.563,0 z m 14.938,25.8125 q 1.875,0 3.5,-0.625 1.625,-0.6875 2.75,-1.875 l -12.438,-9.1875 q -0.625,0.75 -0.937,1.8125 -0.313,1.0625 -0.313,2.375 0,3.0625 2.188,5.3125 2.187,2.1875 5.25,2.1875 z m 0,4.125 q -4.813,0 -8.25,-3.375 -3.375,-3.4375 -3.375,-8.25 0,-5.125 3.625,-8.8125 3.687,-3.6875 8.875,-3.6875 1.125,0 2.187,0.25 1.063,0.1875 1.938,0.625 l 0,4.125 q -0.563,-0.375 -1.688,-0.5625 -1.062,-0.25 -2.437,-0.25 -1.5,0 -2.75,0.4375 -1.25,0.375 -2.25,1.25 l 12.875,9.5625 1.687,-2.125 0,5.4375 q -1.75,2.5625 -4.562,4 -2.75,1.375 -5.875,1.375 z" />
    <path d="m 314.312,62.125 0,-3.75 36,0 0,3.75 -6.625,0 0,10.8125 -16.25,0 q -2.437,0 -4.125,1.75 -1.687,1.6875 -1.687,4.0625 0,4.5 4.75,7.6875 4.75,3.1875 11.5,3.1875 0,-2.9375 1.312,-5 1.313,-2.125 3.25,-2.125 1.375,0 2.313,1 1,0.9375 1,2.375 0,1.625 -1,3.3125 -1,1.6875 -2.75,2.875 l 4.562,7.9375 -3.75,1.688 -4.562,-8.3755 q -8.625,0 -14.75,-4.25 -6.063,-4.3125 -6.063,-10.3125 0,-4.125 2.875,-7 2.938,-2.9375 7.125,-2.9375 l 12.063,0 0,-6.6875 -25.188,0 z" />
  </g>
  <g>
    <path d="m 462.52,61.4004 0,-7.04 -16.96,0 0,7.04 16.96,0 z m -25.728,-20.672 4.352,-1.856 q 2.816,4.544 5.952,11.328 l 5.824,0 q 3.776,-5.568 6.656,-11.072 l 4.48,1.408 q -2.624,5.184 -5.696,9.664 l 9.088,0 0,26.496 -21.888,0 0,6.4 26.88,0 0,4.224 -26.88,0 0,10.496 -5.12,0 0,-10.496 -26.88,0 0,-4.224 26.88,0 0,-6.4 -16.96,0 -4.928,0 0,-26.496 8.384,0 q -2.624,-5.184 -4.992,-8.832 l 4.352,-1.856 q 3.136,4.928 5.888,10.688 l 9.728,0 q -2.048,-4.416 -5.12,-9.472 z m 8.768,31.872 16.96,0 0,-7.36 -16.96,0 0,7.36 z m -5.12,0 0,-7.36 -16.96,0 0,7.36 16.96,0 z m -16.96,-11.2 16.96,0 0,-7.04 -16.96,0 0,7.04 z" />
    <path d="m 480.888,73.6884 0,-4.096 19.584,0 0,4.096 -19.584,0 z m 0,-9.088 0,-4.032 19.584,0 0,4.032 -19.584,0 z m -2.24,-9.024 0,-4.288 23.872,0 0,4.288 -23.872,0 z m 1.792,-9.088 0,-4.16 20.288,0 0,4.16 -20.288,0 z m 48.128,43.392 0,-11.904 -18.56,0 0,11.904 18.56,0 z m -13.44,-24.704 11.712,0 0,-7.936 -10.048,0 -1.664,7.936 z m -30.016,25.792 11.2,0 0,-8.192 -11.2,0 0,8.192 z m 0,4.032 0,2.816 -4.672,0 0,-19.136 20.352,0 0,16.32 -15.68,0 z m 24.896,-1.152 0,2.752 -4.8,0 0,-22.72 28.224,0 0,22.72 -4.864,0 0,-2.752 -18.56,0 z m 2.624,-40.512 1.408,-6.72 -10.112,0 0,-4.16 30.784,0 0,4.16 -15.616,0 -1.472,6.72 14.144,0 0,11.84 4.672,0 0,4.16 -33.792,0 0,-4.16 7.424,0 1.664,-7.936 -6.336,0 0,-3.904 7.232,0 z" />
  </g>

</svg>
