<?xml version="1.0" encoding="UTF-8" standalone="no"?>
<svg width="525" height="300" viewBox="0 0 525 300"
     xmlns="http://www.w3.org/2000/svg" version="1.1">
  <desc>Glyph box description.</desc>

  <style>
    text {
      font-size: 18px;
    }
  </style>
  
  <!-- DejaVu Serif: em=2048, ascent=1556, descent=492 widths: V=1479, a=1221, n=1319,
       kerning Va=-188 -->
  <rect x="75"    y="40" width="144.4" height="200" style="fill:none;stroke:#add8e6"/>
  <rect x="201.1" y="40" width="119.2" height="200" style="fill:none;stroke:#add8e6;stroke-dasharray:4"/>
  <rect x="320.3" y="40" width="128.8" height="200" style="fill:none;stroke:#add8e6"/>

  <path d="m 75,200 374.1,0"   style="fill:none;stroke:#add8e6"/>

  <circle cx="75"    cy="200" r="4" style="fill:black"/>
  <circle cx="201.1" cy="200" r="4" style="fill:black"/>
  <circle cx="320.3" cy="200" r="4" style="fill:black"/>
  <rect   x="445.6" y="196.5" width="7" height="7" style="fill:black"/>

  <!--
  <text x="75" y="200" style="font-family:'DejaVu Serif';font-size:200px"  fill="black">Van</text>
  -->
  <path d="m 109.961,64.6484 43.066,111.9136 42.969,-111.9136 h -16.406 v -10.4492 h 42.773 v 10.4492 h -14.16 l -52.051,135.3516 h -16.797 l -51.7573,-135.3516 h -14.5508 v -10.4492 h 53.1251 v 10.4492 z" style="fill:black"/>
  <path d="m 280.762,167.383 v -21.973 h -23.145 q -13.379,0 -19.922,5.762 -6.543,5.762 -6.543,17.676 0,10.84 6.641,17.187 6.641,6.348 17.969,6.348 11.23,0 18.066,-6.934 6.934,-6.933 6.934,-18.066 z m 17.968,-32.227 v 54.492 h 16.016 v 10.352 h -33.984 v -11.23 q -5.957,7.226 -13.77,10.644 -7.812,3.418 -18.262,3.418 -17.285,0 -27.441,-9.18 -10.156,-9.179 -10.156,-24.804 0,-16.114 11.621,-25 11.621,-8.887 32.812,-8.887 h 25.196 v -7.129 q 0,-11.816 -7.227,-18.262 -7.129,-6.543 -20.117,-6.543 -10.742,0 -17.09,4.883 -6.348,4.883 -7.91,14.453 h -9.277 v -20.996 q 9.375,-4.0037 18.164,-5.9568 8.886,-2.0508 17.285,-2.0508 21.582,0 32.812,10.7426 11.328,10.644 11.328,31.054 z" style="fill:black"/>
  <path d="m 328.516,200 v -10.352 h 16.211 v -83.007 h -17.188 v -10.4496 h 35.156 v 18.4566 q 4.981,-10.546 12.891,-15.9175 8.008,-5.3711 18.555,-5.3711 17.187,0 25.293,9.8636 8.105,9.863 8.105,30.761 v 55.664 h 16.016 v 10.352 h -49.61 v -10.352 h 15.528 v -50 q 0,-19.043 -4.688,-26.074 -4.687,-7.129 -16.504,-7.129 -12.5,0 -19.043,9.18 -6.543,9.082 -6.543,26.562 v 47.461 h 15.625 v 10.352 z" style="fill:black"/>

  <text x="75"    y="228" style="font-size:24px;text-anchor:middle">V</text>
  <text x="201.1" y="228" style="font-size:24px;text-anchor:middle">a</text>
  <text x="320.3" y="228" style="font-size:24px;text-anchor:middle">n</text>
</svg>

