<?xml version="1.0" encoding="UTF-8" standalone="no"?>
<svg width="450" height="300" viewBox="0 0 450 300"
     xmlns="http://www.w3.org/2000/svg" version="1.1">
  <desc>EM box description.</desc>

  <style>
    text {
      font-size: 18px;
    }
  </style>
  
  <defs>
    <marker id="Arrow" orient="auto" style="overflow:visible">
      <path d="m -8,0 -5,-5 15,5 -15,5 z" style="fill:black"/>
    </marker>
  </defs>

  <rect x="75" y="40" width="200" height="200" style="fill:none;stroke:#add8e6"/>
  <path d="m 75,200 200,0"   style="fill:none;stroke:#add8e6"/>
  <path d="m 280,40  25,0"   style="fill:none;stroke:black"/>
  <path d="m 280,200 25,0"   style="fill:none;stroke:black"/>
  <path d="m 280,240 25,0"   style="fill:none;stroke:black"/>
  <path d="m 75 200 75,0"    style="fill:none;stroke:black;marker-end:url(#Arrow)"/>
  <path d="m 75 200 0,-75"   style="fill:none;stroke:black;marker-end:url(#Arrow)"/>
  <circle cx="75" cy="200" r="3" style="fill:black"/>
  <!-- M -->
  <path d="m 91.75,75.5833 25.083,0 31.75,84.6667 31.917,-84.6667 25.083,0 0,124.4167 -16.416,0 0,-109.25 -32.084,85.333 -16.916,0 -32.084,-85.333 0,109.25 -16.333,0 0,-124.4167 z" style="fill:black"/>

  <path d="m 300,200 0,38"   style="fill:none;stroke:black;marker-end:url(#Arrow)"/>
  <path d="m 300,200 0,-158" style="fill:none;stroke:black;marker-end:url(#Arrow)"/>
  
  <text x="65"  y="130" style="font-size:24px;text-anchor:end">y</text>
  <text x="150" y="220" style="font-size:24px;text-anchor:middle">x</text>
  <text x="70"  y="205" style="font-size:24px;text-anchor:end">(0,0)</text>
  <text x="310" y="125" style="font-size:24px">Ascent</text>
  <text x="310" y="230" style="font-size:24px">Descent</text>

</svg>

