<svg xmlns="http://www.w3.org/2000/svg"
     xmlns:xlink="http://www.w3.org/1999/xlink"
     width="600" height="300" viewBox="0 0 600 300">
  <style>
    text { font-size:72px; text-anchor: middle; }
    path { fill: none; stroke: #add8e6; }
    .en { font-family: "DejaVu Sans"; }
    .ar { font-family: "PakType Naqsh"; }
  </style>

  <path id="path1" d="m  20.1,150 a 150,150 0 0 1 129.9,-75 150,150 0 0 1 129.9,75" />
  <path id="path2" d="m 320.1,150 a 150,150 0 0 1 129.9,-75 150,150 0 0 1 129.9,75" />
  <path id="path3" d="m  20.1,275 a 150,150 0 0 1 129.9,-75 150,150 0 0 1 129.9,75" />
  <path id="path4" d="m 320.1,275 a 150,150 0 0 1 129.9,-75 150,150 0 0 1 129.9,75" />

  <text class="en"><textPath xlink:href="#path1" startOffset="50%">Office</textPath></text>
  <text class="en"><textPath xlink:href="#path2" startOffset="50%" method="stretch">Office</textPath></text>
  <text class="ar"><textPath xlink:href="#path3" startOffset="50%">اصبر تنل</textPath></text>
  <text class="ar"><textPath xlink:href="#path4" startOffset="50%" method="stretch">اصبر تنل</textPath></text>

</svg>
