<?xml version="1.0" encoding="UTF-8" standalone="no"?>
<svg width="600" height="150" viewBox="0 0 600 150"
     xmlns="http://www.w3.org/2000/svg" version="1.1">
  <desc>Vertical align example.</desc>

  <path d="m 25,75 h 250"                 style="fill:none;stroke:#add8e6"/>

  <!-- DejaVu Sans: 144px, 120px -->
  <path d="m 218.43,21.504 v 106.992 h -24.85 v -8.38 h 14.01 v -90.233 h -14.01 v -8.379 z m -92.93,25.547 h 51.21 v 9.844 l -40.55,47.171 h 40.55 v 8.61 h -52.68 v -9.84 l 40.55,-47.172 h -39.08 z m -43.19,-25.547 h 24.85 v 8.379 h -14.07 v 90.233 h 14.07 v 8.38 h -24.85 z m 173.49,-10.699 v 128.391 h -29.81 v -10.06 h 16.81 v -108.276 h -16.81 v -10.055 z m -210.43,0 h 29.82 v 10.055 h -16.88 v 108.276 h 16.88 v 10.06 h -29.82 z" style="fill:black"/>

  <path d="m 375,125 h 90 m 0,-48 h 70"   style="fill:none;stroke:#add8e6"/>

  <!-- DejaVu Sans: 120px -->
  <path d="m 480,70.525 h 26.85 v 6.475 h -36.1 v -6.475 q 4.38,-4.532 11.92,-12.149 7.58,-7.655 9.52,-9.864 3.7,-4.152 5.14,-7.008 1.49,-2.895 1.49,-5.675 0,-4.532 -3.2,-7.389 -3.16,-2.856 -8.27,-2.856 -3.61,0 -7.65,1.257 -4,1.257 -8.57,3.808 v -7.769 q 4.65,-1.866 8.68,-2.818 4.04,-0.953 7.39,-0.953 8.84,0 14.09,4.418 5.26,4.418 5.26,11.807 0,3.504 -1.33,6.665 -1.3,3.123 -4.76,7.389 -0.96,1.104 -6.06,6.398 -5.1,5.256 -14.4,14.739 z m -20.12,-11.15 -23.73,31.935 24.96,33.69 h -12.72 l -19.1,-25.78 -19.1,25.78 h -12.71 l 25.49,-34.34 -23.33,-31.285 h 12.72 l 17.4,23.379 17.4,-23.379 z m 20.12,11.15 h 26.85 v 6.475 h -36.1 v -6.475 q 4.38,-4.532 11.92,-12.149 7.58,-7.655 9.52,-9.864 3.7,-4.152 5.14,-7.008 1.49,-2.895 1.49,-5.675 0,-4.532 -3.2,-7.389 -3.16,-2.856 -8.27,-2.856 -3.61,0 -7.65,1.257 -4,1.257 -8.57,3.808 v -7.769 q 4.65,-1.866 8.68,-2.818 4.04,-0.953 7.39,-0.953 8.84,0 14.09,4.418 5.26,4.418 5.26,11.807 0,3.504 -1.33,6.665 -1.3,3.123 -4.76,7.389 -0.96,1.104 -6.06,6.398 -5.1,5.256 -14.4,14.739 z m -20.12,-11.15 -23.73,31.935 24.96,33.69 h -12.72 l -19.1,-25.78 -19.1,25.78 h -12.71 l 25.49,-34.34 -23.33,-31.285 h 12.72 l 17.4,23.379 17.4,-23.379 z" style="fill:black"/>

</svg>

