<svg xmlns="http://www.w3.org/2000/svg" viewBox="-50,-50,500,500" height="5cm" width="5cm">

	<rect x="-50" y="-50" width="500" height="500" stroke="orange" stroke-width="3" fill="none"></rect>
	
	<!-- Nested local coordinate system is transformed by this transform attribute -->
	<g id="base" transform="matrix(2.1169438081370817,0.3576047954311102,-0.3576047954311102,1.4700998667618626,0,0)">
		
		<!-- Graph paper on the this svg's base local coordinate system -->
		<g stroke="green" stroke-width="1" fill="none">
			<circle cx="0" cy="0" r="10"></circle>
			<circle cx="150" cy="150" r="7"></circle>
			<path fill="green" stroke="none" d="M0,-3 L30,-3 25,-10 50,0 25,10 30,3 0,3z"></path>
			
			<line x1="-100" y1="-100" x2="600" y2="-100" stroke-dasharray="5,5"></line>
			<line x1="-100" y1="000" x2="600" y2="000"></line>
			<line x1="-100" y1="100" x2="600" y2="100" stroke-dasharray="5,5"></line>
			<line x1="-100" y1="200" x2="600" y2="200" stroke-dasharray="5,5"></line>
			<line x1="-100" y1="300" x2="600" y2="300" stroke-dasharray="5,5"></line>
			<line x1="-100" y1="400" x2="600" y2="400" stroke-dasharray="5,5"></line>
			<line x1="-100" y1="500" x2="600" y2="500" stroke-dasharray="5,5"></line>
			
			<line y1="-100" x1="-100" y2="600" x2="-100" stroke-dasharray="5,5"></line>
			<line y1="-100" x1="000" y2="600" x2="000"></line>
			<line y1="-100" x1="100" y2="600" x2="100" stroke-dasharray="5,5"></line>
			<line y1="-100" x1="200" y2="600" x2="200" stroke-dasharray="5,5"></line>
			<line y1="-100" x1="300" y2="600" x2="300" stroke-dasharray="5,5"></line>
			<line y1="-100" x1="400" y2="600" x2="400" stroke-dasharray="5,5"></line>
			<line y1="-100" x1="500" y2="600" x2="500" stroke-dasharray="5,5"></line>
		</g>
		
		<!-- Figure having vector effect -->
		<!-- An thick red right arrow and small rectangle on this figure's nested local coordinate system origin -->
		<path id="ve" vector-effect="" stroke="red" stroke-width="3" fill="none" transform="matrix(0.8167221482010348,-0.19866933079506124,0.19866933079506124,1.1760798934094898,150,150)" d="M-50,-50 L50,-50 50,-100 150,0 50,100 50,50 -50,50 -50,-50z M5 0 L0 -5  -5 0 0 5z"></path>
		
	</g>
</svg>