<?xml version="1.0" encoding="UTF-8" standalone="no"?>
<svg
   xmlns="http://www.w3.org/2000/svg"
   width="450"
   height="300">
  <defs>
    <marker
       id="Arrow2Mstart"
       orient="auto"
       refY="0.0"
       refX="0.0"
       style="overflow:visible">
      <path
         d="M 8.7,4 L -2.2,0 L 8.7,-4 C 7,-1.6 7,1.6 8.7,4 z "
         transform="scale(0.6)"/>
    </marker>
    <marker
       id="Arrow2Mend"
       orient="auto"
       refY="0.0"
       refX="0.0"
       style="overflow:visible;">
      <path
         d="M 8.7,4 L -2.2,0 L 8.7,-4 C 7,-1.6 7,1.6 8.7,4 z "
         transform="scale(0.6) rotate(180)"/>
    </marker>
  </defs>
  <path
      style="fill:none;stroke:black"
      d="M 125,50 325,250"/>
  <g style="fill:none;stroke:black;stroke-width:2;stroke-dasharray:3, 1">
    <path d="M 250,275 400,125" style="opacity:0.5"/>
    <path d="M 175,250 350,75"/>
    <path d="M 100,225 275,50"/>
    <path d="M  50,175 200,25" style="opacity:0.5"/>
  </g>
  <path
      style="fill:none;stroke:black;stroke-width:2;marker-end:url(#Arrow2Mend)"
      d="m 200,125 50,50"/>
  <circle cx="200" cy="125" r="3"/>
  <path
      style="fill:none;stroke:black"
      d="m 200,125 35,0"/>
  <path
      style="fill:none;stroke:black;stroke-width:1.5;marker-start:url(#Arrow2Mstart)"
      d="M 222.3,145 A 30,30 0 0 0 230,125" />
  <g style="font-size:16px;text-anchor:middle;font-family:DejaVu Sans">
    <text x="170" y="130">(x,y)</text>
    <text x="253" y="143">Angle</text>
    <text x="265" y="-35"
	  transform="matrix(0.70710678,0.70710678,-0.70710678,0.70710678,0,0)">Pitch</text>
    <text>
      <tspan x="365" y="245">Reference</tspan>
      <tspan x="365" y="262.5">line</tspan>
    </text>
  </g>
</svg>
