<svg xmlns="http://www.w3.org/2000/svg"
     xmlns:xlink="http://www.w3.org/1999/xlink"
     width="950" height="330">

  <mask id="m1" maskUnits="userSpaceOnUse" maskContentUnits="userSpaceOnUse" x="-60" y="-60" width="120" height="120">
    <rect x="-60" y="-60" width="120" height="120" fill="white"/>
    <circle r="10"/>
  </mask>

  <mask id="m2" maskUnits="userSpaceOnUse" maskContentUnits="userSpaceOnUse" x="-60" y="-60" width="120" height="120">
    <rect x="-60" y="-60" width="120" height="120" fill="white"/>
    <circle r="5"/>
  </mask>

  <mask id="m3" maskUnits="userSpaceOnUse" maskContentUnits="userSpaceOnUse" x="-60" y="-60" width="120" height="120">
    <rect x="-60" y="-60" width="120" height="120" fill="white"/>
    <rect x="-10" y="-10" width="20" height="20"/>
  </mask>

  <mask id="m4" maskUnits="userSpaceOnUse" maskContentUnits="userSpaceOnUse" x="-60" y="-60" width="120" height="120">
    <rect x="-60" y="-60" width="120" height="120" fill="white"/>
    <rect x="-5" y="-5" width="10" height="10"/>
  </mask>

  <mask id="m5" maskUnits="userSpaceOnUse" maskContentUnits="userSpaceOnUse" x="-60" y="-60" width="120" height="120">
    <rect x="-60" y="-60" width="120" height="120" fill="white"/>
    <path d="M 0,-8 l -8,8 8,8 8,-8 z"/>
  </mask>

  <mask id="m6" maskUnits="userSpaceOnUse" maskContentUnits="userSpaceOnUse" x="-60" y="-60" width="120" height="120">
    <rect x="-60" y="-60" width="120" height="120" fill="white"/>
    <path d="M 0,-4 l -4,4 4,4 4,-4 z"/>
  </mask>


  <mask id="m7" maskUnits="userSpaceOnUse" maskContentUnits="userSpaceOnUse" x="-60" y="-60" width="120" height="120">
    <rect x="-60" y="-60" width="120" height="120" fill="white"/>
    <circle cx="-10" r="10"/>
    <rect x="-10" y="-8" width="20" height="16"/>
    <circle cx="10" r="10"/>
  </mask>

  <mask id="m8" maskUnits="userSpaceOnUse" maskContentUnits="userSpaceOnUse" x="-60" y="-60" width="120" height="120">
    <rect x="-60" y="-60" width="120" height="120" fill="white"/>
    <rect x="-10" y="-8" width="20" height="16"/>
    <circle cx="-10" r="5"/>
    <circle cx="10" r="5"/>
  </mask>

  <mask id="m9" maskUnits="userSpaceOnUse" maskContentUnits="userSpaceOnUse" x="-60" y="-60" width="120" height="120">
    <rect x="-60" y="-60" width="120" height="120" fill="white"/>
    <rect x="-20" y="-10" width="40" height="20"/>
  </mask>

  <mask id="m10" maskUnits="userSpaceOnUse" maskContentUnits="userSpaceOnUse" x="-60" y="-60" width="120" height="120">
    <rect x="-60" y="-60" width="120" height="120" fill="white"/>
    <rect x="-15" y="-5" width="30" height="10"/>
    <rect x="-10" y="-8" width="20" height="16"/>
  </mask>

  <mask id="m11" maskUnits="userSpaceOnUse" maskContentUnits="userSpaceOnUse" x="-60" y="-60" width="120" height="120">
    <rect x="-60" y="-60" width="120" height="120" fill="white"/>
    <path d="M -10,-8 l -8,8 8,8 z M 10,-8 l 8,8 -8,8 z"/>
    <rect x="-10" y="-8" width="20" height="16"/>
  </mask>

  <mask id="m12" maskUnits="userSpaceOnUse" maskContentUnits="userSpaceOnUse" x="-60" y="-60" width="120" height="120">
    <rect x="-60" y="-60" width="120" height="120" fill="white"/>
    <path d="M -10,-4 l -4,4 4,4 z M 10,-4 l 4,4 -4,4 z"/>
    <rect x="-10" y="-8" width="20" height="16"/>
  </mask>


  <mask id="m13" maskUnits="userSpaceOnUse" maskContentUnits="userSpaceOnUse" x="-60" y="-60" width="120" height="120">
    <rect x="-60" y="-60" width="120" height="120" fill="white"/>
    <rect x="-20" y="-8" width="40" height="16"/>
    <circle cx="-18" r="10" fill="white"/>
    <circle cx="18" r="10" fill="white"/>
  </mask>

  <mask id="m14" maskUnits="userSpaceOnUse" maskContentUnits="userSpaceOnUse" x="-60" y="-60" width="120" height="120">
    <rect x="-60" y="-60" width="120" height="120" fill="white"/>
    <rect x="-10" y="-8" width="20" height="16"/>

    <rect x="-15" y="-8" width="5" height="16"/>
    <circle cx="-15" r="5" fill="white"/>
    <rect x="-20" y="-8" width="5" height="16" fill="white"/>

    <rect x="5" y="-8" width="5" height="16"/>
    <circle cx="10" r="5" fill="white"/>
    <rect x="10" y="-8" width="5" height="16" fill="white"/>
  </mask>

  <mask id="m15" maskUnits="userSpaceOnUse" maskContentUnits="userSpaceOnUse" x="-60" y="-60" width="120" height="120">
    <rect x="-60" y="-60" width="120" height="120" fill="white"/>
    <rect x="-10" y="-10" width="20" height="20"/>
  </mask>

  <mask id="m16" maskUnits="userSpaceOnUse" maskContentUnits="userSpaceOnUse" x="-60" y="-60" width="120" height="120">
    <rect x="-60" y="-60" width="120" height="120" fill="white"/>
    <rect x="-15" y="-8" width="30" height="3"/>
    <rect x="-15" y="5" width="30" height="3"/>
    <rect x="-10" y="-8" width="20" height="16"/>
  </mask>

  <mask id="m17" maskUnits="userSpaceOnUse" maskContentUnits="userSpaceOnUse" x="-60" y="-60" width="120" height="120">
    <rect x="-60" y="-60" width="120" height="120" fill="white"/>
    <rect x="-18" y="-8" width="36" height="16"/>
    <path d="M -18,-8 l 8,8 -8,8 z M 18,-8 l -8,8 8,8 z" fill="white"/>
  </mask>

  <mask id="m18" maskUnits="userSpaceOnUse" maskContentUnits="userSpaceOnUse" x="-60" y="-60" width="120" height="120">
    <rect x="-60" y="-60" width="120" height="120" fill="white"/>
    <rect x="-14" y="-8" width="28" height="16"/>
    <path d="M -14,-4 l 4,4 -4,4 z M 14,-4 l -4,4 4,4 z" fill="white"/>
  </mask>


  <defs>
    <path id="p" d="M -50,0 h 100" stroke-width="16"/>
  </defs>

  <g font-family="sans-serif" font-size="12px" text-anchor="middle">
    <!-- row 1 -->
    <g transform="translate(100,50)">
      <use xlink:href="#p" stroke="deeppink" mask="url(#m1)"/>
      <text y="32">10px circle</text>
    </g>

    <g transform="translate(250,50)">
      <use xlink:href="#p" stroke="deeppink" mask="url(#m2)"/>
      <text y="32">5px circle</text>
    </g>

    <g transform="translate(400,50)">
      <use xlink:href="#p" stroke="deeppink" mask="url(#m3)"/>
      <text y="32">10px rectangle</text>
    </g>

    <g transform="translate(550,50)">
      <use xlink:href="#p" stroke="deeppink" mask="url(#m4)"/>
      <text y="32">5px 10px rectangle</text>
    </g>

    <g transform="translate(700,50)">
      <use xlink:href="#p" stroke="deeppink" mask="url(#m5)"/>
      <text y="32">8px triangle</text>
    </g>

    <g transform="translate(850,50)">
      <use xlink:href="#p" stroke="deeppink" mask="url(#m6)"/>
      <text y="32">4px 8px triangle</text>
    </g>

    <!-- row 2 -->
    <g transform="translate(100,150)">
      <use xlink:href="#p" stroke="deeppink" mask="url(#m7)"/>
      <text y="32">10px circle</text>
      <text y="48">at 10px</text>
    </g>

    <g transform="translate(250,150)">
      <use xlink:href="#p" stroke="deeppink" mask="url(#m8)"/>
      <text y="32">5px circle</text>
      <text y="48">at 10px</text>
    </g>

    <g transform="translate(400,150)">
      <use xlink:href="#p" stroke="deeppink" mask="url(#m9)"/>
      <text y="32">10px rectangle</text>
      <text y="48">at 10px</text>
    </g>

    <g transform="translate(550,150)">
      <use xlink:href="#p" stroke="deeppink" mask="url(#m10)"/>
      <text y="32">5px 10px rectangle</text>
      <text y="48">at 10px</text>
    </g>

    <g transform="translate(700,150)">
      <use xlink:href="#p" stroke="deeppink" mask="url(#m11)"/>
      <text y="32">8px triangle</text>
      <text y="48">at 10px</text>
    </g>

    <g transform="translate(850,150)">
      <use xlink:href="#p" stroke="deeppink" mask="url(#m12)"/>
      <text y="32">4px 8px triangle</text>
      <text y="48">at 10px</text>
    </g>

    <!-- row 3 -->
    <g transform="translate(100,250)">
      <use xlink:href="#p" stroke="deeppink" mask="url(#m13)"/>
      <text y="32">10px inverted circle</text>
      <text y="48">at 10px</text>
    </g>

    <g transform="translate(250,250)">
      <use xlink:href="#p" stroke="deeppink" mask="url(#m14)"/>
      <text y="32">5px inverted circle</text>
      <text y="48">at 10px</text>
    </g>

    <g transform="translate(400,250)">
      <use xlink:href="#p" stroke="deeppink" mask="url(#m15)"/>
      <text y="32">10px inverted rectangle</text>
      <text y="48">at 10px</text>
    </g>

    <g transform="translate(550,250)">
      <use xlink:href="#p" stroke="deeppink" mask="url(#m16)"/>
      <text y="32">5px 10px inverted rectangle</text>
      <text y="48">at 10px</text>
    </g>

    <g transform="translate(700,250)">
      <use xlink:href="#p" stroke="deeppink" mask="url(#m17)"/>
      <text y="32">8px inverted triangle</text>
      <text y="48">at 10px</text>
    </g>

    <g transform="translate(850,250)">
      <use xlink:href="#p" stroke="deeppink" mask="url(#m18)"/>
      <text y="32">4px 8px inverted triangle</text>
      <text y="48">at 10px</text>
    </g>
  </g>
</svg>
