<?xml version="1.0" encoding="UTF-8" standalone="no"?>
<svg xmlns="http://www.w3.org/2000/svg"
     xmlns:xlink="http://www.w3.org/1999/xlink"
     width="500" height="250">
  <defs>
    <g id="dot">
      <rect x="-3" y="-3" width="6" height="6" fill="white"/>
      <rect x="-2" y="-2" width="4" height="4" fill="black"/>
    </g>
  </defs>
  <path
     style="fill:deeppink"
     d="m 130,50 c 0,33.02 13.45,63.16 35.15,84.85 7.12,7.13 15.16,13.36 23.91,18.53 -49.81,12.6 -103.328,5.7 -149.06,-20.7 l -20,34.64 c 74.228,42.86 165.77,42.86 240,0 a 213.91,213.91 0 0 0 92.03,-106.75 109.68,109.68 0 0 1 -102.03,69.43 c -22.21,0 -42.07,-8.93 -56.57,-23.43 -14.5,-14.5 -23.43,-34.36 -23.43,-56.57 z"/>
  <!-- Dark gray stroke -->
  <path style="fill:none;stroke:#444;stroke-width:40px"
     d="m 150,50 a 100,100 0 0 0 100,100 m 0,0 a 220,220 0 0 1 -220,0" />
  <path style="fill:none;stroke:#ccc;stroke-width:2px"
     d="m 150,50 a 100,100 0 0 0 100,100 m 0,0 a 220,220 0 0 1 -220,0" />
  <g style="fill:none;stroke:black;stroke-dasharray:3, 3">
    <circle cx="250" cy="50" r="80"  />
    <circle cx="140"  cy="-40" r="240" />
  </g>
  <g style="fill:none;stroke:#6a9100">
    <circle cx="250"   cy="20"     r="110"  />
    <circle cx="156" cy="-14.576" r="210" />
  </g>
</svg>
