<?xml version="1.0" encoding="UTF-8" standalone="no"?>
<svg xmlns="http://www.w3.org/2000/svg"
     xmlns:xlink="http://www.w3.org/1999/xlink"
     width="500" height="250">
  <defs>
    <g id="dot">
      <rect x="-3" y="-3" width="6" height="6" fill="white"/>
      <rect x="-2" y="-2" width="4" height="4" fill="black"/>
    </g>
  </defs>
  <path
     style="fill:deeppink"
     d="m 250,125 10.11,-17.51 c 24.89,14.77 49.89,17.51 63.74,17.51 -13.85,0 -38.85,2.91 -63.99,17.43 z" />
  <!-- Dark gray stroke -->
  <path style="fill:none;stroke:#444;stroke-width:40px"
     d="m 213.4,261.6 a 100,100 0 0 1 36.6,-136.6 m 0,0 a 100,100 0 0 1 -36.6,-136.6" />
  <path style="fill:none;stroke:#ccc;stroke-width:2px"
     d="m 213.4,261.6 a 100,100 0 0 1 36.6,-136.6 m 0,0 a 100,100 0 0 1 -36.6,-136.6" />
  <g style="fill:none;stroke:black;stroke-dasharray:3, 3">
    <circle cx="300"  cy="38.4"  r="80" />
    <circle cx="300"  cy="211.6" r="80" />
  </g>
  <g style="fill:none;stroke:#6a9100">
    <circle cx="325" cy="-5"  r="130" />
    <circle cx="325" cy="255" r="130" />
  </g>
</svg>
