<svg xmlns="http://www.w3.org/2000/svg"
     xmlns:xlink="http://www.w3.org/1999/xlink"
     width="400" height="200">

  <defs>
    <marker id="m1" markerWidth="8" markerHeight="8" refX="4" refY="4" markerUnits="userSpaceOnUse">
      <circle cx="4" cy="4" r="3" fill="deeppink"/>
    </marker>
    <g id="m2">
      <path d="M -4,-4 L 4,4 M -4,4 L 4,-4" fill="none" stroke="white" stroke-width="4"/>
      <path d="M -4,-4 L 4,4 M -4,4 L 4,-4" fill="none" stroke="black" stroke-width="2"/>
    </g>
  </defs>

  <!-- grid lines -->
  <path stroke="#888" d="M 40,20 360,20 M 40,40 360,40 M 40,60 360,60
                         M 40,80 360,80 M 40,100 360,100 M 40,120 360,120
                         M 40,140 360,140 M 40,160 360,160 M 40,180 360,180"/>

  <polyline points="50,100 100,20 150,50 200,130 250,80 300,170 350,100"
            fill="none" stroke="deeppink" stroke-width="2"
            style="marker: url(#m1)"/>

  <use xlink:href="#m2" x="75" y="60"/>
  <use xlink:href="#m2" x="125" y="35"/>
  <use xlink:href="#m2" x="175" y="90"/>
  <use xlink:href="#m2" x="225" y="105"/>
  <use xlink:href="#m2" x="275" y="125"/>
  <use xlink:href="#m2" x="325" y="135"/>
</svg>
