<svg xmlns="http://www.w3.org/2000/svg" viewBox="0 0 26 381" width="0.25in" height="3.66in">
  <rect width="26" height="381" fill="red"/>
  <g transform="matrix(0,-1,1,0,0,0)" fill="white">
    <path d="m -198.077,4.5159997 -2.231,0 -4.278,10.8100003 -4.37,-10.8100003 -2.139,0 -4.347,10.8100003 -4.324,-10.8100003 -2.254,0 6.348,15.8240003 0.437,0 5.198,-12.8340003 5.152,12.8340003 0.437,0 6.371,-15.8240003"/>
    <path d="m -196.16872,7.1149997 c 1.081,-0.4829996 1.817,-0.667 2.668,-0.667 1.656,0 2.714,0.8970014 2.714,2.346 0,1.4259983 -1.035,2.2770003 -3.105,2.2770003 l 0,2.07 c 2.231,-0.115 3.358,1.081001 3.358,2.622 0,1.517998 -0.989,2.507 -2.53,2.507 -1.15,0 -2.3,-0.391001 -3.496,-1.196 l 0,2.438 c 1.127,0.574999 2.254,0.897 3.335,0.897 2.898,0 4.945,-1.955003 4.945,-4.761 0,-1.609999 -0.69,-3.243001 -2.254,-3.726 1.426,-0.782 2.001,-1.771002 2.001,-3.5190003 0,-2.4839976 -1.817,-4.094 -4.623,-4.094 -1.173,0 -2.07,0.2070004 -3.013,0.667 l 0,2.139"/>
    <path d="m -171.44372,5.5969997 c -2.139,-0.8969991 -3.772,-1.288 -5.382,-1.288 -4.99099,0 -8.602,3.4960047 -8.602,8.2800003 0,3.288996 2.57601,7.82 8.464,7.82 2.461,0 4.14,-0.575001 5.681,-1.38 l 0,-2.461 c -1.771,1.149999 -3.703,1.771 -5.474,1.771 -3.77199,0 -6.348,-2.438004 -6.348,-5.957 0,-3.4499969 2.668,-6.0030003 6.256,-6.0030003 1.817,0 3.473,0.5060011 5.405,1.633 l 0,-2.415"/>
    <path d="m -153.22017,4.5159997 -8.901,0 0,15.6860003 9.108,0 0,-2.024 -6.854,0 0,-4.876 6.417,0 0,-2.024 -6.417,0 0,-4.7380003 6.647,0 0,-2.024"/>
    <path d="m -141.97317,4.5159997 -2.047,0 0,5.5660003 c -0.828,-0.299 -1.472,-0.4140003 -2.162,-0.4140003 -3.013,0 -5.152,2.1390033 -5.152,5.1290003 0,3.311996 1.932,5.405 5.014,5.405 l 4.347,0 0,-15.6860003 m -2.047,13.9610003 -2.07,0 c -2.369,0 -3.151,-1.449002 -3.151,-3.381 0,-2.161998 1.334,-3.588 3.312,-3.588 0.69,0 1.219,0.115 1.909,0.391 l 0,6.578"/>
    <path d="m -137.07956,9.8749997 -2.047,0 0,10.3270003 2.047,0 0,-10.3270003 m 0.207,-3.128 c 0,-0.6669994 -0.552,-1.219 -1.219,-1.219 -0.667,0 -1.219,0.5520006 -1.219,1.219 0,0.6669993 0.552,1.219 1.219,1.219 0.667,0 1.219,-0.5520007 1.219,-1.219"/>
    <path d="m -131.74931,7.7359997 -3.841,3.7490003 0,0.23 1.794,0 0,5.451 c 0,1.862998 1.127,3.243 3.358,3.243 0.667,0 1.771,-0.299001 2.484,-0.69 l 0,-1.909 c -0.828,0.505999 -1.587,0.759 -2.323,0.759 -0.598,0 -1.472,-0.345002 -1.472,-1.564 l 0,-5.29 3.266,0 0,-1.8400003 -3.266,0 0,-2.139"/>
    <path d="m -121.62967,9.6679997 c -3.082,0 -5.451,2.3000033 -5.451,5.2670003 0,3.173996 2.277,5.474 5.451,5.474 3.31199,0 5.589,-2.208004 5.589,-5.474 0,-3.058997 -2.34601,-5.2670003 -5.589,-5.2670003 m -0.023,1.8400003 c 2.047,0 3.519,1.449002 3.519,3.45 0,2.230997 -1.357,3.611 -3.519,3.611 -1.978,0 -3.335,-1.449003 -3.335,-3.634 0,-1.977998 1.403,-3.427 3.335,-3.427"/>
    <path d="m -113.60878,9.8749997 0,10.3270003 2.047,0 0,-5.405 c 0,-1.770999 1.104,-3.174 2.507,-3.174 0.483,0 1.288,0.414 1.909,1.012 l 1.081,-1.771 c -0.851,-0.805 -1.633,-1.1960003 -2.461,-1.1960003 -0.966,0 -1.955,0.7590013 -2.99,2.5760003 l -0.046,0 0,-2.3690003 -2.047,0"/>
    <path d="m -104.71964,9.9669997 c 1.702,-0.5059995 2.622,-1.8170017 2.622,-3.519 0,-1.1729989 -0.598,-2.139 -1.541,-2.139 -0.782,0 -1.38,0.4830009 -1.38,1.403 0,0.7359992 0.483,1.2650001 1.219,1.357 0.046,0.919999 0.023,1.6560008 -0.92,2.461 l 0,0.437"/>
    <path d="m -95.425185,10.519 c -1.080999,-0.5749998 -2.070001,-0.8510003 -3.036,-0.8510003 -2.069995,0 -3.404005,1.0580013 -3.404005,2.8060003 0,2.782997 4.830005,3.542001 4.830005,4.968 0,0.735999 -0.690001,1.127 -1.518,1.173 -0.828,0 -2.047005,-0.437001 -3.381005,-1.357 l 0,2.208 c 1.334,0.689999 2.323006,0.943 3.588005,0.943 1.954998,0 3.404,-1.219002 3.404,-3.036 0,-1.057999 -0.621002,-1.771001 -2.323,-2.898 -1.816999,-1.057999 -2.507,-1.610001 -2.507,-2.07 0,-0.552 0.529,-0.943 1.357,-0.943 0.758999,0 1.840001,0.322 2.99,1.081 l 0,-2.024"/>
    <path d="m -85.890668,20.202 6.118,0 c 5.174995,0 8.326,-3.818004 8.326,-7.843 0,-3.7029966 -2.553005,-7.8430003 -8.349,-7.8430003 l -6.095,0 0,15.6860003 m 2.254,-13.6620003 3.473,0 c 4.392996,0 6.394,2.6680031 6.394,5.8190003 0,1.931998 -1.173005,5.819 -6.279,5.819 l -3.588,0 0,-11.6380003"/>
    <path d="m -68.801668,9.8749997 0,10.3270003 2.047,0 0,-5.405 c 0,-1.770999 1.104002,-3.174 2.507,-3.174 0.483,0 1.288001,0.414 1.909,1.012 l 1.081,-1.771 c -0.850999,-0.805 -1.633,-1.1960003 -2.461,-1.1960003 -0.965999,0 -1.955001,0.7590013 -2.99,2.5760003 l -0.046,0 0,-2.3690003 -2.047,0"/>
    <path d="m -51.816527,18.362 c -0.46,0.344999 -0.874,0.552 -1.081,0.552 -0.253,0 -0.391,-0.138001 -0.391,-0.529 l 0,-5.313 c 0,-2.345998 -1.656002,-3.4040003 -3.749,-3.4040003 -1.494998,0 -2.622001,0.4600013 -3.427,1.4030003 l 0,2.231 c 0.988999,-1.172999 2.139001,-1.702 3.266,-1.702 1.241999,0 1.863,0.529001 1.863,1.817 l 0,0.552 -1.817,0.644 c -1.655998,0.597999 -3.519,1.219002 -3.519,3.266 0,1.333998 1.012002,2.53 2.53,2.53 0.942999,0 1.886001,-0.345001 2.783,-1.058 0.184,0.735999 0.667001,1.058 1.564,1.058 0.643999,0 1.035001,-0.184001 1.978,-0.805 l 0,-1.242 m -3.519,-0.253 c -0.551999,0.528999 -1.150001,0.851 -1.794,0.851 -0.850999,0 -1.472,-0.598001 -1.472,-1.449 0,-1.218999 1.518002,-1.817001 3.266,-2.415 l 0,3.013"/>
    <path d="m -44.623636,4.5159997 c -1.793999,-0.5059995 -2.967001,-0.091999 -3.841,0.782 -0.828,0.8279991 -1.311,1.794002 -1.311,3.818 l 0,0.759 -1.449,0 0,1.8400003 1.449,0 0,8.487 2.047,0 0,-8.487 1.863,0 0,-1.8400003 -1.863,0 0,-0.989 c 0,-1.5869984 0.529001,-2.553 2.185,-2.553 0.367999,0 0.575,0.046 0.92,0.184 l 0,-2.001"/>
    <path d="m -41.840636,7.7359997 -3.841,3.7490003 0,0.23 1.794,0 0,5.451 c 0,1.862998 1.127002,3.243 3.358,3.243 0.666999,0 1.771,-0.299001 2.484,-0.69 l 0,-1.909 c -0.828,0.505999 -1.587001,0.759 -2.323,0.759 -0.598,0 -1.472,-0.345002 -1.472,-1.564 l 0,-5.29 3.266,0 0,-1.8400003 -3.266,0 0,-2.139"/>
  </g>
</svg>
