<?xml version="1.0" encoding="UTF-8" standalone="no"?>
<svg width="450" height="300" viewBox="0 0 450 300"
     xmlns="http://www.w3.org/2000/svg" version="1.1">
  <desc>EM box description.</desc>

  <style>
    text {
      font-size: 18px;
    }
  </style>
  
  <defs>
    <marker id="Arrow" orient="auto" style="overflow:visible">
      <path d="m -8,0 -5,-5 15,5 -15,5 z" style="fill:black"/>
    </marker>
  </defs>

  <rect x="75" y="40" width="200" height="200" style="fill:none;stroke:#add8e6"/>
  <path d="m 75,200 200,0"   style="fill:none;stroke:#add8e6"/>
  <path d="m 280,40  25,0"   style="fill:none;stroke:black"/>
  <path d="m 280,200 25,0"   style="fill:none;stroke:black"/>
  <path d="m 280,240 25,0"   style="fill:none;stroke:black"/>
  <path d="m 75 200 75,0"    style="fill:none;stroke:black;marker-end:url(#Arrow)"/>
  <path d="m 75 200 0,-75"   style="fill:none;stroke:black;marker-end:url(#Arrow)"/>
  <circle cx="75" cy="200" r="4" style="fill:black"/>
  <!--
  <text x="75"  y="200" style="font-family:'DejaVu Sans';font-size:200px">M</text>
  -->
  <path d="m 94.6289,54.1992 h 29.3941 l 37.207,99.2188 37.403,-99.2188 h 29.394 v 145.8008 h -19.238 v -128.0273 l -37.598,100.0003 h -19.824 l -37.597,-100.0003 v 128.0273 h -19.1411 z" style="fill:black"/>
  <path d="m 300,200 0,38"   style="fill:none;stroke:black;marker-end:url(#Arrow)"/>
  <path d="m 300,200 0,-158" style="fill:none;stroke:black;marker-end:url(#Arrow)"/>
  
  <text x="65"  y="130" style="font-size:24px;text-anchor:end">y</text>
  <text x="150" y="220" style="font-size:24px;text-anchor:middle">x</text>
  <text x="70"  y="205" style="font-size:24px;text-anchor:end">(0,0)</text>
  <text x="310" y="125" style="font-size:24px">Ascent</text>
  <text x="310" y="230" style="font-size:24px">Descent</text>

</svg>

