<?xml version="1.0" encoding="UTF-8" standalone="no"?>
<svg width="600" height="300" viewBox="0 0 600 300"
     xmlns="http://www.w3.org/2000/svg" version="1.1">
  <desc>Text flow into complex shape.</desc>

  <g style="fill:none;stroke:black">
    <path d="m 50,50 h 175 l 75,100 75,-100 h 175 l -150,200 h -200 z"/>
  </g>

  <g style="fill:none;stroke:#add8e6">
    <rect x="69"  y="50" height="25" width="156" />
    <rect x="375" y="50" height="25" width="156"/>
  </g>

  <!--
      <text style="shape-inside:url(#outline);font-size:20px;line-height:25px;font-family:'DejaVu Sans';text-align:center">Lorem ipsum dolor sit amet, consectetur adipisicing elit, sed do eiusmod tempor incididunt ut labore et dolore magna aliqua. Ut enim ad minim veniam, quis nostrud exercitation ullamco laboris nisi ut aliquip ex ea commodo consequat. Duis aute irure dolor in reprehenderit in voluptate velit esse cillum dolore eu fugiat nulla pariatur. Excepteur sint occaecat cupidatat non proident, sunt in culpa qui officia deserunt mollit anim id est laborum.</text>
  -->

  <path d="m 392.69,234 1.79,0 0,10.93 -1.79,0 0,-10.93 z m 0,-4.26 1.79,0 0,2.28 -1.79,0 0,-2.28 z m -3.46,4.58 0,1.7 q -0.76,-0.39 -1.58,-0.59 -0.82,-0.19 -1.7,-0.19 -1.34,0 -2.01,0.41 -0.67,0.41 -0.67,1.23 0,0.62 0.48,0.98 0.48,0.36 1.92,0.68 l 0.62,0.14 q 1.91,0.41 2.71,1.16 0.81,0.74 0.81,2.08 0,1.52 -1.21,2.41 -1.2,0.89 -3.31,0.89 -0.88,0 -1.83,-0.18 -0.95,-0.16 -2,-0.51 l 0,-1.85 q 0.99,0.52 1.96,0.78 0.96,0.25 1.91,0.25 1.27,0 1.96,-0.43 0.68,-0.43 0.68,-1.23 0,-0.73 -0.5,-1.12 -0.49,-0.39 -2.16,-0.75 l -0.62,-0.15 q -1.67,-0.35 -2.41,-1.07 -0.75,-0.73 -0.75,-2 0,-1.55 1.1,-2.39 1.09,-0.84 3.1,-0.84 1,0 1.88,0.15 0.88,0.15 1.62,0.44 z m -12.52,-0.32 1.8,0 0,10.93 -1.8,0 0,-10.93 z m 0,-4.26 1.8,0 0,2.28 -1.8,0 0,-2.28 z m -3.6,8.59 0,6.6 -1.8,0 0,-6.54 q 0,-1.55 -0.61,-2.32 -0.6,-0.77 -1.81,-0.77 -1.46,0 -2.3,0.92 -0.84,0.93 -0.84,2.53 l 0,6.18 -1.8,0 0,-10.93 1.8,0 0,1.7 q 0.65,-0.99 1.52,-1.48 0.87,-0.49 2.02,-0.49 1.88,0 2.85,1.18 0.97,1.16 0.97,3.42 z m -18.92,-4.01 0,1.7 q -0.76,-0.39 -1.58,-0.59 -0.82,-0.19 -1.7,-0.19 -1.34,0 -2.01,0.41 -0.67,0.41 -0.67,1.23 0,0.62 0.48,0.98 0.48,0.36 1.92,0.68 l 0.62,0.14 q 1.91,0.41 2.71,1.16 0.82,0.74 0.82,2.08 0,1.52 -1.22,2.41 -1.2,0.89 -3.31,0.89 -0.88,0 -1.83,-0.18 -0.95,-0.16 -2,-0.51 l 0,-1.85 q 0.99,0.52 1.96,0.78 0.97,0.25 1.91,0.25 1.27,0 1.96,-0.43 0.68,-0.43 0.68,-1.23 0,-0.73 -0.5,-1.12 -0.49,-0.39 -2.16,-0.75 l -0.62,-0.15 q -1.67,-0.35 -2.41,-1.07 -0.75,-0.73 -0.75,-2 0,-1.55 1.1,-2.39 1.09,-0.84 3.1,-0.84 1,0 1.88,0.15 0.88,0.15 1.62,0.44 z m -12.52,-0.32 1.8,0 0,10.93 -1.8,0 0,-10.93 z m 0,-4.26 1.8,0 0,2.28 -1.8,0 0,-2.28 z m -1.9,5.94 q -0.31,-0.18 -0.67,-0.26 -0.35,-0.1 -0.78,-0.1 -1.52,0 -2.34,0.99 -0.81,0.99 -0.81,2.84 l 0,5.76 -1.81,0 0,-10.93 1.81,0 0,1.7 q 0.56,-1 1.47,-1.48 0.91,-0.49 2.21,-0.49 0.18,0 0.41,0 0.22,0 0.5,0.1 l 0,1.85 z m -14.33,-0.42 q -1.45,0 -2.29,1.13 -0.84,1.12 -0.84,3.09 0,1.96 0.83,3.09 0.84,1.12 2.3,1.12 1.43,0 2.27,-1.13 0.84,-1.13 0.84,-3.08 0,-1.95 -0.84,-3.08 -0.84,-1.14 -2.27,-1.14 z m 0,-1.53 q 2.34,0 3.68,1.53 1.34,1.52 1.34,4.22 0,2.68 -1.34,4.21 -1.34,1.53 -3.68,1.53 -2.35,0 -3.69,-1.53 -1.33,-1.53 -1.33,-4.21 0,-2.7 1.33,-4.22 1.34,-1.53 3.69,-1.53 z m -9.08,5.75 q 0,-1.99 -0.82,-3.11 -0.81,-1.13 -2.24,-1.13 -1.43,0 -2.25,1.13 -0.81,1.12 -0.81,3.11 0,1.98 0.81,3.11 0.82,1.12 2.25,1.12 1.43,0 2.24,-1.12 0.82,-1.13 0.82,-3.11 z m -6.12,-3.82 q 0.57,-0.98 1.43,-1.45 0.87,-0.48 2.07,-0.48 1.99,0 3.23,1.59 1.25,1.58 1.25,4.16 0,2.57 -1.25,4.16 -1.24,1.58 -3.23,1.58 -1.2,0 -2.07,-0.47 -0.86,-0.48 -1.43,-1.46 l 0,1.64 -1.8,0 0,-15.19 1.8,0 0,5.92 z m -9.03,3.78 q -2.18,0 -3.02,0.49 -0.84,0.5 -0.84,1.7 0,0.96 0.63,1.53 0.63,0.55 1.72,0.55 1.49,0 2.39,-1.05 0.91,-1.06 0.91,-2.82 l 0,-0.4 -1.79,0 z m 3.58,-0.75 0,6.24 -1.79,0 0,-1.66 q -0.62,1 -1.54,1.48 -0.91,0.47 -2.24,0.47 -1.68,0 -2.68,-0.94 -0.98,-0.95 -0.98,-2.53 0,-1.84 1.23,-2.78 1.24,-0.94 3.69,-0.94 l 2.52,0 0,-0.18 q 0,-1.24 -0.82,-1.91 -0.81,-0.68 -2.29,-0.68 -0.93,0 -1.82,0.22 -0.89,0.23 -1.71,0.68 l 0,-1.66 q 0.98,-0.39 1.91,-0.57 0.93,-0.2 1.81,-0.2 2.37,0 3.54,1.23 1.17,1.23 1.17,3.73 z m -14.1,-8.95 1.8,0 0,15.19 -1.8,0 0,-15.19 z m -14.35,5.52 q -1.45,0 -2.29,1.13 -0.84,1.12 -0.84,3.09 0,1.96 0.83,3.09 0.84,1.12 2.3,1.12 1.43,0 2.27,-1.13 0.84,-1.13 0.84,-3.08 0,-1.95 -0.84,-3.08 -0.84,-1.14 -2.27,-1.14 z m 0,-1.53 q 2.34,0 3.68,1.53 1.34,1.52 1.34,4.22 0,2.68 -1.34,4.21 -1.34,1.53 -3.68,1.53 -2.36,0 -3.69,-1.53 -1.33,-1.53 -1.33,-4.21 0,-2.7 1.33,-4.22 1.33,-1.53 3.69,-1.53 z m -7.38,0.69 0,1.68 q -0.77,-0.42 -1.54,-0.63 -0.76,-0.21 -1.54,-0.21 -1.75,0 -2.72,1.11 -0.96,1.1 -0.96,3.11 0,2 0.96,3.11 0.97,1.1 2.72,1.1 0.78,0 1.54,-0.2 0.77,-0.22 1.54,-0.64 l 0,1.67 q -0.76,0.35 -1.57,0.52 -0.8,0.18 -1.71,0.18 -2.47,0 -3.92,-1.55 -1.46,-1.56 -1.46,-4.19 0,-2.68 1.47,-4.21 1.47,-1.54 4.03,-1.54 0.83,0 1.62,0.18 0.79,0.17 1.54,0.51 z m -18.85,1.68 q 0.67,-1.21 1.61,-1.79 0.94,-0.58 2.21,-0.58 1.7,0 2.63,1.2 0.93,1.2 0.93,3.4 l 0,6.6 -1.81,0 0,-6.54 q 0,-1.57 -0.55,-2.33 -0.56,-0.76 -1.7,-0.76 -1.4,0 -2.21,0.92 -0.81,0.93 -0.81,2.53 l 0,6.18 -1.81,0 0,-6.54 q 0,-1.58 -0.55,-2.33 -0.56,-0.76 -1.72,-0.76 -1.38,0 -2.19,0.93 -0.81,0.93 -0.81,2.52 l 0,6.18 -1.81,0 0,-10.93 1.81,0 0,1.7 q 0.62,-1.01 1.47,-1.49 0.86,-0.48 2.05,-0.48 1.19,0 2.02,0.61 0.84,0.6 1.24,1.76 z m -15.81,3.34 q -2.18,0 -3.02,0.49 -0.84,0.5 -0.84,1.7 0,0.96 0.62,1.53 0.64,0.55 1.72,0.55 1.5,0 2.4,-1.05 0.9,-1.06 0.9,-2.82 l 0,-0.4 -1.78,0 z m 3.58,-0.75 0,6.24 -1.8,0 0,-1.66 q -0.61,1 -1.53,1.48 -0.92,0.47 -2.25,0.47 -1.68,0 -2.67,-0.94 -0.99,-0.95 -0.99,-2.53 0,-1.84 1.23,-2.78 1.24,-0.94 3.69,-0.94 l 2.52,0 0,-0.18 q 0,-1.24 -0.82,-1.91 -0.81,-0.68 -2.28,-0.68 -0.94,0 -1.83,0.22 -0.89,0.23 -1.71,0.68 l 0,-1.66 q 0.99,-0.39 1.92,-0.57 0.93,-0.2 1.8,-0.2 2.38,0 3.55,1.23 1.17,1.23 1.17,3.73 z m -14.1,-8.95 1.8,0 0,15.19 -1.8,0 0,-15.19 z m -5.55,0 1.8,0 0,15.19 -1.8,0 0,-15.19 z m -12.88,10.88 0,-6.62 1.8,0 0,6.55 q 0,1.55 0.6,2.33 0.61,0.78 1.82,0.78 1.46,0 2.3,-0.93 0.84,-0.93 0.84,-2.53 l 0,-6.2 1.8,0 0,10.93 -1.8,0 0,-1.67 q -0.65,0.99 -1.52,1.48 -0.86,0.48 -2,0.48 -1.89,0 -2.86,-1.17 -0.98,-1.18 -0.98,-3.43 z m 4.52,-6.89 0,0 z m 189.15,-20.4 0,6.6 -1.79,0 0,-6.54 q 0,-1.55 -0.61,-2.32 -0.6,-0.77 -1.82,-0.77 -1.45,0 -2.29,0.92 -0.84,0.93 -0.84,2.53 l 0,6.18 -1.81,0 0,-10.93 1.81,0 0,1.7 q 0.64,-0.99 1.51,-1.48 0.88,-0.49 2.03,-0.49 1.88,0 2.85,1.18 0.96,1.16 0.96,3.42 z m -17.08,-3.07 q -1.44,0 -2.28,1.13 -0.84,1.12 -0.84,3.09 0,1.96 0.83,3.09 0.84,1.12 2.29,1.12 1.44,0 2.28,-1.13 0.84,-1.13 0.84,-3.08 0,-1.95 -0.84,-3.08 -0.84,-1.14 -2.28,-1.14 z m 0,-1.53 q 2.35,0 3.68,1.53 1.34,1.52 1.34,4.22 0,2.68 -1.34,4.21 -1.33,1.53 -3.68,1.53 -2.35,0 -3.69,-1.53 -1.33,-1.53 -1.33,-4.21 0,-2.7 1.33,-4.22 1.34,-1.53 3.69,-1.53 z m -9.78,0.27 1.8,0 0,10.93 -1.8,0 0,-10.93 z m 0,-4.26 1.8,0 0,2.28 -1.8,0 0,-2.28 z m -6.08,1.15 0,3.11 3.71,0 0,1.39 -3.71,0 0,5.94 q 0,1.34 0.37,1.72 0.37,0.38 1.49,0.38 l 1.85,0 0,1.5 -1.85,0 q -2.08,0 -2.87,-0.77 -0.79,-0.78 -0.79,-2.83 l 0,-5.94 -1.32,0 0,-1.39 1.32,0 0,-3.11 1.8,0 z m -9.07,8.55 q -2.18,0 -3.02,0.49 -0.84,0.5 -0.84,1.7 0,0.96 0.63,1.53 0.63,0.55 1.72,0.55 1.49,0 2.39,-1.05 0.91,-1.06 0.91,-2.82 l 0,-0.4 -1.79,0 z m 3.59,-0.75 0,6.24 -1.8,0 0,-1.66 q -0.62,1 -1.53,1.48 -0.92,0.47 -2.25,0.47 -1.68,0 -2.68,-0.94 -0.98,-0.95 -0.98,-2.53 0,-1.84 1.23,-2.78 1.24,-0.94 3.69,-0.94 l 2.52,0 0,-0.18 q 0,-1.24 -0.82,-1.91 -0.81,-0.68 -2.29,-0.68 -0.93,0 -1.82,0.22 -0.89,0.23 -1.71,0.68 l 0,-1.66 q 0.98,-0.39 1.91,-0.57 0.93,-0.2 1.81,-0.2 2.37,0 3.54,1.23 1.18,1.23 1.18,3.73 z m -14.63,-7.8 0,3.11 3.7,0 0,1.39 -3.7,0 0,5.94 q 0,1.34 0.36,1.72 0.37,0.38 1.49,0.38 l 1.85,0 0,1.5 -1.85,0 q -2.08,0 -2.87,-0.77 -0.79,-0.78 -0.79,-2.83 l 0,-5.94 -1.32,0 0,-1.39 1.32,0 0,-3.11 1.81,0 z m -7.33,3.11 1.8,0 0,10.93 -1.8,0 0,-10.93 z m 0,-4.26 1.8,0 0,2.28 -1.8,0 0,-2.28 z m -3.14,4.68 0,1.68 q -0.76,-0.42 -1.54,-0.63 -0.76,-0.21 -1.54,-0.21 -1.75,0 -2.71,1.11 -0.97,1.1 -0.97,3.11 0,2 0.97,3.11 0.96,1.1 2.71,1.1 0.78,0 1.54,-0.2 0.78,-0.22 1.54,-0.64 l 0,1.67 q -0.75,0.35 -1.56,0.52 -0.81,0.18 -1.71,0.18 -2.47,0 -3.93,-1.55 -1.45,-1.56 -1.45,-4.19 0,-2.68 1.46,-4.21 1.48,-1.54 4.03,-1.54 0.83,0 1.62,0.18 0.8,0.17 1.54,0.51 z m -9.35,1.26 q -0.3,-0.18 -0.66,-0.26 -0.35,-0.1 -0.78,-0.1 -1.53,0 -2.35,0.99 -0.81,0.99 -0.81,2.84 l 0,5.76 -1.8,0 0,-10.93 1.8,0 0,1.7 q 0.57,-1 1.48,-1.48 0.91,-0.49 2.2,-0.49 0.19,0 0.41,0 0.23,0 0.5,0.1 l 0,1.85 z m -9.28,3.34 0,0.88 -8.27,0 q 0.12,1.85 1.12,2.83 1,0.96 2.79,0.96 1.03,0 2,-0.25 0.98,-0.25 1.94,-0.76 l 0,1.7 q -0.97,0.41 -1.99,0.62 -1.01,0.22 -2.06,0.22 -2.61,0 -4.15,-1.53 -1.52,-1.52 -1.52,-4.12 0,-2.68 1.44,-4.25 1.46,-1.59 3.92,-1.59 2.21,0 3.49,1.43 1.29,1.42 1.29,3.86 z m -1.8,-0.53 q 0,-1.47 -0.83,-2.35 -0.8,-0.88 -2.13,-0.88 -1.5,0 -2.41,0.85 -0.9,0.85 -1.04,2.39 l 6.41,0 z m -9.68,-4.49 -3.95,5.32 4.16,5.61 -2.12,0 -3.19,-4.29 -3.18,4.29 -2.12,0 4.25,-5.72 -3.89,-5.21 2.12,0 2.9,3.89 2.9,-3.89 2.12,0 z m -11.69,5.02 0,0.88 -8.26,0 q 0.12,1.85 1.11,2.83 1.01,0.96 2.8,0.96 1.03,0 2,-0.25 0.97,-0.25 1.93,-0.76 l 0,1.7 q -0.97,0.41 -1.98,0.62 -1.02,0.22 -2.06,0.22 -2.62,0 -4.15,-1.53 -1.53,-1.52 -1.53,-4.12 0,-2.68 1.45,-4.25 1.45,-1.59 3.92,-1.59 2.2,0 3.48,1.43 1.29,1.42 1.29,3.86 z m -1.8,-0.53 q 0,-1.47 -0.83,-2.35 -0.8,-0.88 -2.12,-0.88 -1.51,0 -2.42,0.85 -0.9,0.85 -1.03,2.39 l 6.4,0 z m -19.42,-2.83 0,-5.92 1.8,0 0,15.19 -1.8,0 0,-1.64 q -0.57,0.98 -1.44,1.46 -0.85,0.47 -2.07,0.47 -1.98,0 -3.23,-1.58 -1.24,-1.59 -1.24,-4.16 0,-2.58 1.24,-4.16 1.25,-1.59 3.23,-1.59 1.22,0 2.07,0.48 0.87,0.47 1.44,1.45 z m -6.12,3.82 q 0,1.98 0.81,3.11 0.82,1.12 2.24,1.12 1.43,0 2.25,-1.12 0.82,-1.13 0.82,-3.11 0,-1.99 -0.82,-3.11 -0.82,-1.13 -2.25,-1.13 -1.42,0 -2.24,1.13 -0.81,1.12 -0.81,3.11 z m -13.96,1.14 0,-6.62 1.8,0 0,6.55 q 0,1.55 0.6,2.33 0.61,0.78 1.82,0.78 1.46,0 2.3,-0.93 0.85,-0.93 0.85,-2.53 l 0,-6.2 1.79,0 0,10.93 -1.79,0 0,-1.67 q -0.66,0.99 -1.53,1.48 -0.86,0.48 -2,0.48 -1.88,0 -2.86,-1.17 -0.98,-1.18 -0.98,-3.43 z m 4.52,-6.89 0,0 z m -6.24,1.95 q -0.3,-0.18 -0.66,-0.26 -0.35,-0.1 -0.78,-0.1 -1.53,0 -2.35,0.99 -0.81,0.99 -0.81,2.84 l 0,5.76 -1.8,0 0,-10.93 1.8,0 0,1.7 q 0.57,-1 1.48,-1.48 0.91,-0.49 2.21,-0.49 0.18,0 0.41,0 0.22,0 0.49,0.1 l 0,1.85 z m -12.41,-4.79 0,3.11 3.7,0 0,1.39 -3.7,0 0,5.94 q 0,1.34 0.36,1.72 0.37,0.38 1.5,0.38 l 1.84,0 0,1.5 -1.84,0 q -2.08,0 -2.87,-0.77 -0.8,-0.78 -0.8,-2.83 l 0,-5.94 -1.31,0 0,-1.39 1.31,0 0,-3.11 1.81,0 z m -5.23,3.43 0,1.7 q -0.76,-0.39 -1.58,-0.59 -0.83,-0.19 -1.7,-0.19 -1.34,0 -2.02,0.41 -0.66,0.41 -0.66,1.23 0,0.62 0.48,0.98 0.48,0.36 1.92,0.68 l 0.62,0.14 q 1.91,0.41 2.71,1.16 0.81,0.74 0.81,2.08 0,1.52 -1.21,2.41 -1.2,0.89 -3.31,0.89 -0.88,0 -1.83,-0.18 -0.95,-0.16 -2.01,-0.51 l 0,-1.85 q 1,0.52 1.97,0.78 0.96,0.25 1.91,0.25 1.27,0 1.95,-0.43 0.69,-0.43 0.69,-1.23 0,-0.73 -0.5,-1.12 -0.49,-0.39 -2.16,-0.75 l -0.62,-0.15 q -1.67,-0.35 -2.42,-1.07 -0.74,-0.73 -0.74,-2 0,-1.55 1.1,-2.39 1.09,-0.84 3.1,-0.84 1,0 1.88,0.15 0.87,0.15 1.62,0.44 z m -14.96,0.94 q -1.45,0 -2.29,1.13 -0.84,1.12 -0.84,3.09 0,1.96 0.83,3.09 0.84,1.12 2.3,1.12 1.43,0 2.27,-1.13 0.84,-1.13 0.84,-3.08 0,-1.95 -0.84,-3.08 -0.84,-1.14 -2.27,-1.14 z m 0,-1.53 q 2.34,0 3.68,1.53 1.34,1.52 1.34,4.22 0,2.68 -1.34,4.21 -1.34,1.53 -3.68,1.53 -2.36,0 -3.7,-1.53 -1.32,-1.53 -1.32,-4.21 0,-2.7 1.32,-4.22 1.34,-1.53 3.7,-1.53 z m -7.85,4.6 0,6.6 -1.79,0 0,-6.54 q 0,-1.55 -0.61,-2.32 -0.6,-0.77 -1.81,-0.77 -1.46,0 -2.3,0.92 -0.84,0.93 -0.84,2.53 l 0,6.18 -1.81,0 0,-10.93 1.81,0 0,1.7 q 0.65,-0.99 1.51,-1.48 0.88,-0.49 2.03,-0.49 1.88,0 2.85,1.18 0.96,1.16 0.96,3.42 z m 186.89,-29.01 0,1.7 q -0.76,-0.39 -1.58,-0.59 -0.82,-0.19 -1.7,-0.19 -1.34,0 -2.01,0.41 -0.67,0.41 -0.67,1.23 0,0.62 0.48,0.98 0.48,0.36 1.92,0.68 l 0.62,0.14 q 1.91,0.41 2.71,1.16 0.82,0.74 0.82,2.08 0,1.52 -1.22,2.41 -1.2,0.89 -3.31,0.89 -0.88,0 -1.83,-0.18 -0.95,-0.16 -2,-0.51 l 0,-1.85 q 0.99,0.52 1.96,0.78 0.97,0.25 1.91,0.25 1.27,0 1.96,-0.43 0.68,-0.43 0.68,-1.23 0,-0.73 -0.5,-1.12 -0.49,-0.39 -2.16,-0.75 l -0.62,-0.15 q -1.67,-0.35 -2.41,-1.07 -0.75,-0.73 -0.75,-2 0,-1.55 1.1,-2.39 1.09,-0.84 3.1,-0.84 1,0 1.88,0.15 0.88,0.15 1.62,0.44 z m -12.52,-0.32 1.8,0 0,10.93 -1.8,0 0,-10.93 z m 0,-4.26 1.8,0 0,2.28 -1.8,0 0,-2.28 z m -12.88,10.88 0,-6.62 1.8,0 0,6.55 q 0,1.55 0.6,2.33 0.61,0.78 1.82,0.78 1.45,0 2.29,-0.93 0.85,-0.93 0.85,-2.53 l 0,-6.2 1.8,0 0,10.93 -1.8,0 0,-1.67 q -0.65,0.99 -1.52,1.48 -0.86,0.48 -2,0.48 -1.89,0 -2.86,-1.17 -0.98,-1.18 -0.98,-3.43 z m 4.52,-6.89 0,0 z m -15.96,5.75 q 0,1.98 0.81,3.11 0.82,1.12 2.25,1.12 1.43,0 2.25,-1.12 0.82,-1.13 0.82,-3.11 0,-1.99 -0.82,-3.11 -0.82,-1.13 -2.25,-1.13 -1.43,0 -2.25,1.13 -0.81,1.12 -0.81,3.11 z m 6.13,3.81 q -0.57,0.98 -1.44,1.46 -0.86,0.47 -2.07,0.47 -1.98,0 -3.23,-1.58 -1.24,-1.59 -1.24,-4.16 0,-2.58 1.24,-4.16 1.25,-1.59 3.23,-1.59 1.21,0 2.07,0.48 0.87,0.47 1.44,1.45 l 0,-1.66 1.79,0 0,15.1 -1.79,0 0,-5.81 z m -19.48,-0.84 2.06,0 0,1.68 -1.6,3.13 -1.26,0 0.8,-3.13 0,-1.68 z m -11.43,-6.35 q 0.67,-1.21 1.61,-1.79 0.94,-0.58 2.21,-0.58 1.71,0 2.63,1.2 0.93,1.2 0.93,3.4 l 0,6.6 -1.81,0 0,-6.54 q 0,-1.57 -0.55,-2.33 -0.56,-0.76 -1.7,-0.76 -1.4,0 -2.21,0.92 -0.81,0.93 -0.81,2.53 l 0,6.18 -1.81,0 0,-6.54 q 0,-1.58 -0.55,-2.33 -0.56,-0.76 -1.72,-0.76 -1.38,0 -2.19,0.93 -0.81,0.93 -0.81,2.52 l 0,6.18 -1.81,0 0,-10.93 1.81,0 0,1.7 q 0.62,-1.01 1.48,-1.49 0.85,-0.48 2.04,-0.48 1.19,0 2.02,0.61 0.84,0.6 1.24,1.76 z m -15.81,3.34 q -2.18,0 -3.02,0.49 -0.84,0.5 -0.84,1.7 0,0.96 0.63,1.53 0.63,0.55 1.71,0.55 1.5,0 2.4,-1.05 0.9,-1.06 0.9,-2.82 l 0,-0.4 -1.78,0 z m 3.58,-0.75 0,6.24 -1.8,0 0,-1.66 q -0.61,1 -1.53,1.48 -0.92,0.47 -2.24,0.47 -1.68,0 -2.68,-0.94 -0.99,-0.95 -0.99,-2.53 0,-1.84 1.23,-2.78 1.24,-0.94 3.7,-0.94 l 2.51,0 0,-0.18 q 0,-1.24 -0.82,-1.91 -0.81,-0.68 -2.28,-0.68 -0.94,0 -1.83,0.22 -0.89,0.23 -1.71,0.68 l 0,-1.66 q 0.99,-0.39 1.92,-0.57 0.93,-0.2 1.8,-0.2 2.38,0 3.55,1.23 1.17,1.23 1.17,3.73 z m -14.1,-4.69 1.8,0 0,10.93 -1.8,0 0,-10.93 z m 0,-4.26 1.8,0 0,2.28 -1.8,0 0,-2.28 z m -3.6,8.59 0,6.6 -1.8,0 0,-6.54 q 0,-1.55 -0.61,-2.32 -0.6,-0.77 -1.81,-0.77 -1.46,0 -2.3,0.92 -0.84,0.93 -0.84,2.53 l 0,6.18 -1.8,0 0,-10.93 1.8,0 0,1.7 q 0.65,-0.99 1.52,-1.48 0.88,-0.49 2.02,-0.49 1.88,0 2.85,1.18 0.97,1.16 0.97,3.42 z m -12.04,0.69 0,0.88 -8.27,0 q 0.12,1.85 1.12,2.83 1,0.96 2.79,0.96 1.04,0 2,-0.25 0.98,-0.25 1.94,-0.76 l 0,1.7 q -0.97,0.41 -1.99,0.62 -1.01,0.22 -2.06,0.22 -2.61,0 -4.15,-1.53 -1.52,-1.52 -1.52,-4.12 0,-2.68 1.44,-4.25 1.46,-1.59 3.92,-1.59 2.21,0 3.49,1.43 1.29,1.42 1.29,3.86 z m -1.8,-0.53 q 0,-1.47 -0.83,-2.35 -0.8,-0.88 -2.13,-0.88 -1.5,0 -2.41,0.85 -0.9,0.85 -1.04,2.39 l 6.41,0 z m -20.69,-4.49 1.91,0 3.42,9.18 3.42,-9.18 1.9,0 -4.1,10.93 -2.44,0 -4.11,-10.93 z m -16.05,2.1 q 0.67,-1.21 1.61,-1.79 0.94,-0.58 2.21,-0.58 1.71,0 2.64,1.2 0.92,1.2 0.92,3.4 l 0,6.6 -1.8,0 0,-6.54 q 0,-1.57 -0.56,-2.33 -0.56,-0.76 -1.7,-0.76 -1.4,0 -2.21,0.92 -0.81,0.93 -0.81,2.53 l 0,6.18 -1.8,0 0,-6.54 q 0,-1.58 -0.56,-2.33 -0.56,-0.76 -1.72,-0.76 -1.38,0 -2.19,0.93 -0.81,0.93 -0.81,2.52 l 0,6.18 -1.8,0 0,-10.93 1.8,0 0,1.7 q 0.62,-1.01 1.48,-1.49 0.86,-0.48 2.04,-0.48 1.19,0 2.02,0.61 0.84,0.6 1.24,1.76 z m -14.06,-2.1 1.79,0 0,10.93 -1.79,0 0,-10.93 z m 0,-4.26 1.79,0 0,2.28 -1.79,0 0,-2.28 z m -3.61,8.59 0,6.6 -1.79,0 0,-6.54 q 0,-1.55 -0.61,-2.32 -0.6,-0.77 -1.81,-0.77 -1.46,0 -2.3,0.92 -0.84,0.93 -0.84,2.53 l 0,6.18 -1.81,0 0,-10.93 1.81,0 0,1.7 q 0.65,-0.99 1.51,-1.48 0.88,-0.49 2.03,-0.49 1.88,0 2.85,1.18 0.96,1.16 0.96,3.42 z m -14.63,-4.33 1.79,0 0,10.93 -1.79,0 0,-10.93 z m 0,-4.26 1.79,0 0,2.28 -1.79,0 0,-2.28 z m -10.98,6.36 q 0.67,-1.21 1.61,-1.79 0.94,-0.58 2.21,-0.58 1.71,0 2.63,1.2 0.93,1.2 0.93,3.4 l 0,6.6 -1.8,0 0,-6.54 q 0,-1.57 -0.56,-2.33 -0.56,-0.76 -1.7,-0.76 -1.4,0 -2.21,0.92 -0.81,0.93 -0.81,2.53 l 0,6.18 -1.8,0 0,-6.54 q 0,-1.58 -0.56,-2.33 -0.56,-0.76 -1.72,-0.76 -1.38,0 -2.19,0.93 -0.81,0.93 -0.81,2.52 l 0,6.18 -1.81,0 0,-10.93 1.81,0 0,1.7 q 0.62,-1.01 1.48,-1.49 0.86,-0.48 2.04,-0.48 1.19,0 2.02,0.61 0.84,0.6 1.24,1.76 z m 214.56,-25.44 0,-5.92 1.8,0 0,15.19 -1.8,0 0,-1.64 q -0.57,0.98 -1.44,1.46 -0.86,0.47 -2.07,0.47 -1.98,0 -3.23,-1.58 -1.24,-1.59 -1.24,-4.16 0,-2.58 1.24,-4.16 1.25,-1.59 3.23,-1.59 1.21,0 2.07,0.48 0.87,0.47 1.44,1.45 z m -6.12,3.82 q 0,1.98 0.81,3.11 0.82,1.12 2.24,1.12 1.43,0 2.25,-1.12 0.82,-1.13 0.82,-3.11 0,-1.99 -0.82,-3.11 -0.82,-1.13 -2.25,-1.13 -1.42,0 -2.24,1.13 -0.81,1.12 -0.81,3.11 z m -8.37,-0 q -2.18,0 -3.02,0.49 -0.84,0.5 -0.84,1.7 0,0.96 0.62,1.53 0.64,0.55 1.72,0.55 1.5,0 2.4,-1.05 0.9,-1.06 0.9,-2.82 l 0,-0.4 -1.78,0 z m 3.58,-0.75 0,6.24 -1.8,0 0,-1.66 q -0.61,1 -1.53,1.48 -0.92,0.47 -2.24,0.47 -1.68,0 -2.68,-0.94 -0.99,-0.95 -0.99,-2.53 0,-1.84 1.23,-2.78 1.24,-0.94 3.69,-0.94 l 2.52,0 0,-0.18 q 0,-1.24 -0.82,-1.91 -0.81,-0.68 -2.28,-0.68 -0.94,0 -1.83,0.22 -0.89,0.23 -1.71,0.68 l 0,-1.66 q 0.99,-0.39 1.92,-0.57 0.93,-0.2 1.8,-0.2 2.38,0 3.55,1.23 1.17,1.23 1.17,3.73 z m -25.9,-2.59 q 0.68,-1.21 1.61,-1.79 0.94,-0.58 2.21,-0.58 1.71,0 2.64,1.2 0.93,1.2 0.93,3.4 l 0,6.6 -1.81,0 0,-6.54 q 0,-1.57 -0.56,-2.33 -0.55,-0.76 -1.7,-0.76 -1.39,0 -2.2,0.92 -0.81,0.93 -0.81,2.53 l 0,6.18 -1.81,0 0,-6.54 q 0,-1.58 -0.56,-2.33 -0.55,-0.76 -1.72,-0.76 -1.37,0 -2.18,0.93 -0.81,0.93 -0.81,2.52 l 0,6.18 -1.81,0 0,-10.93 1.81,0 0,1.7 q 0.61,-1.01 1.47,-1.49 0.86,-0.48 2.04,-0.48 1.19,0 2.02,0.61 0.84,0.6 1.24,1.76 z m -14.06,-2.1 1.8,0 0,10.93 -1.8,0 0,-10.93 z m 0,-4.26 1.8,0 0,2.28 -1.8,0 0,-2.28 z m -3.6,8.59 0,6.6 -1.8,0 0,-6.54 q 0,-1.55 -0.61,-2.32 -0.6,-0.77 -1.81,-0.77 -1.46,0 -2.3,0.92 -0.84,0.93 -0.84,2.53 l 0,6.18 -1.8,0 0,-10.93 1.8,0 0,1.7 q 0.65,-0.99 1.52,-1.48 0.88,-0.49 2.02,-0.49 1.88,0 2.85,1.18 0.97,1.16 0.97,3.42 z m -12.04,0.69 0,0.88 -8.27,0 q 0.12,1.85 1.12,2.83 1,0.96 2.79,0.96 1.04,0 2,-0.25 0.98,-0.25 1.94,-0.76 l 0,1.7 q -0.97,0.41 -1.99,0.62 -1.01,0.22 -2.06,0.22 -2.61,0 -4.15,-1.53 -1.52,-1.52 -1.52,-4.12 0,-2.68 1.44,-4.25 1.46,-1.59 3.92,-1.59 2.21,0 3.49,1.43 1.29,1.42 1.29,3.86 z m -1.8,-0.53 q 0,-1.47 -0.83,-2.35 -0.8,-0.88 -2.13,-0.88 -1.5,0 -2.41,0.85 -0.9,0.85 -1.04,2.39 l 6.41,0 z m -20,-7.6 0,3.11 3.7,0 0,1.39 -3.7,0 0,5.94 q 0,1.34 0.36,1.72 0.37,0.38 1.49,0.38 l 1.85,0 0,1.5 -1.85,0 q -2.08,0 -2.87,-0.77 -0.79,-0.78 -0.79,-2.83 l 0,-5.94 -1.32,0 0,-1.39 1.32,0 0,-3.11 1.81,0 z m -16.57,-0.54 1.98,0 0,8.86 q 0,2.35 0.85,3.38 0.85,1.03 2.75,1.03 1.9,0 2.75,-1.03 0.85,-1.03 0.85,-3.38 l 0,-8.86 1.98,0 0,9.11 q 0,2.85 -1.42,4.3 -1.4,1.46 -4.16,1.46 -2.76,0 -4.18,-1.46 -1.4,-1.45 -1.4,-4.3 l 0,-9.11 z m -12.34,12.1 2.06,0 0,2.48 -2.06,0 0,-2.48 z m -7.55,-3.01 q -2.17,0 -3.01,0.49 -0.84,0.5 -0.84,1.7 0,0.96 0.62,1.53 0.64,0.55 1.72,0.55 1.49,0 2.39,-1.05 0.91,-1.06 0.91,-2.82 l 0,-0.4 -1.79,0 z m 3.59,-0.75 0,6.24 -1.8,0 0,-1.66 q -0.61,1 -1.53,1.48 -0.92,0.47 -2.25,0.47 -1.68,0 -2.67,-0.94 -0.99,-0.95 -0.99,-2.53 0,-1.84 1.23,-2.78 1.24,-0.94 3.69,-0.94 l 2.52,0 0,-0.18 q 0,-1.24 -0.82,-1.91 -0.81,-0.68 -2.28,-0.68 -0.94,0 -1.83,0.22 -0.89,0.23 -1.71,0.68 l 0,-1.66 q 0.99,-0.39 1.91,-0.57 0.93,-0.2 1.81,-0.2 2.37,0 3.55,1.23 1.17,1.23 1.17,3.73 z m -21.44,1.93 0,-6.62 1.8,0 0,6.55 q 0,1.55 0.6,2.33 0.61,0.78 1.82,0.78 1.46,0 2.3,-0.93 0.85,-0.93 0.85,-2.53 l 0,-6.2 1.79,0 0,10.93 -1.79,0 0,-1.67 q -0.66,0.99 -1.53,1.48 -0.86,0.48 -2,0.48 -1.88,0 -2.86,-1.17 -0.98,-1.18 -0.98,-3.43 z m 4.52,-6.89 0,0 z m -15.95,5.75 q 0,1.98 0.81,3.11 0.82,1.12 2.24,1.12 1.43,0 2.25,-1.12 0.82,-1.13 0.82,-3.11 0,-1.99 -0.82,-3.11 -0.82,-1.13 -2.25,-1.13 -1.42,0 -2.24,1.13 -0.81,1.12 -0.81,3.11 z m 6.12,3.81 q -0.57,0.98 -1.44,1.46 -0.86,0.47 -2.07,0.47 -1.98,0 -3.23,-1.58 -1.24,-1.59 -1.24,-4.16 0,-2.58 1.24,-4.16 1.25,-1.59 3.23,-1.59 1.21,0 2.07,0.48 0.87,0.47 1.44,1.45 l 0,-1.66 1.8,0 0,15.1 -1.8,0 0,-5.81 z m -12.74,-9.29 1.79,0 0,10.93 -1.79,0 0,-10.93 z m 0,-4.26 1.79,0 0,2.28 -1.79,0 0,-2.28 z m -5.55,0 1.8,0 0,15.19 -1.8,0 0,-15.19 z m -7.3,9.7 q -2.17,0 -3.01,0.49 -0.84,0.5 -0.84,1.7 0,0.96 0.62,1.53 0.64,0.55 1.72,0.55 1.49,0 2.39,-1.05 0.91,-1.06 0.91,-2.82 l 0,-0.4 -1.79,0 z m 3.59,-0.75 0,6.24 -1.8,0 0,-1.66 q -0.61,1 -1.53,1.48 -0.92,0.47 -2.25,0.47 -1.68,0 -2.67,-0.94 -0.99,-0.95 -0.99,-2.53 0,-1.84 1.23,-2.78 1.24,-0.94 3.69,-0.94 l 2.52,0 0,-0.18 q 0,-1.24 -0.82,-1.91 -0.81,-0.68 -2.28,-0.68 -0.94,0 -1.83,0.22 -0.89,0.23 -1.71,0.68 l 0,-1.66 q 0.99,-0.39 1.91,-0.57 0.93,-0.2 1.81,-0.2 2.37,0 3.55,1.23 1.17,1.23 1.17,3.73 z m -22.22,0.75 q -2.18,0 -3.02,0.49 -0.84,0.5 -0.84,1.7 0,0.96 0.63,1.53 0.63,0.55 1.72,0.55 1.49,0 2.39,-1.05 0.91,-1.06 0.91,-2.82 l 0,-0.4 -1.79,0 z m 3.59,-0.75 0,6.24 -1.8,0 0,-1.66 q -0.62,1 -1.54,1.48 -0.91,0.47 -2.24,0.47 -1.68,0 -2.68,-0.94 -0.98,-0.95 -0.98,-2.53 0,-1.84 1.23,-2.78 1.24,-0.94 3.69,-0.94 l 2.52,0 0,-0.18 q 0,-1.24 -0.82,-1.91 -0.81,-0.68 -2.29,-0.68 -0.93,0 -1.82,0.22 -0.89,0.23 -1.71,0.68 l 0,-1.66 q 0.98,-0.39 1.91,-0.57 0.93,-0.2 1.81,-0.2 2.37,0 3.54,1.23 1.18,1.23 1.18,3.73 z m -12.16,-0.36 0,6.6 -1.8,0 0,-6.54 q 0,-1.55 -0.61,-2.32 -0.6,-0.77 -1.81,-0.77 -1.46,0 -2.3,0.92 -0.84,0.93 -0.84,2.53 l 0,6.18 -1.8,0 0,-10.93 1.8,0 0,1.7 q 0.65,-0.99 1.52,-1.48 0.88,-0.49 2.02,-0.49 1.88,0 2.85,1.18 0.97,1.16 0.97,3.42 z m -14.59,1.01 q 0,-1.95 -0.81,-3.03 -0.8,-1.07 -2.26,-1.07 -1.44,0 -2.26,1.07 -0.8,1.08 -0.8,3.03 0,1.94 0.8,3.02 0.82,1.07 2.26,1.07 1.46,0 2.26,-1.07 0.81,-1.08 0.81,-3.02 z m 1.79,4.24 q 0,2.79 -1.24,4.15 -1.24,1.37 -3.8,1.37 -0.94,0 -1.78,-0.15 -0.84,-0.14 -1.63,-0.43 l 0,-1.75 q 0.79,0.43 1.56,0.64 0.77,0.2 1.57,0.2 1.77,0 2.65,-0.93 0.88,-0.91 0.88,-2.78 l 0,-0.89 q -0.56,0.97 -1.43,1.45 -0.87,0.47 -2.08,0.47 -2.01,0 -3.24,-1.53 -1.23,-1.53 -1.23,-4.06 0,-2.54 1.23,-4.07 1.23,-1.54 3.24,-1.54 1.21,0 2.08,0.48 0.87,0.48 1.43,1.45 l 0,-1.66 1.79,0 0,9.58 z m -16.29,-4.14 q -2.17,0 -3.01,0.49 -0.84,0.5 -0.84,1.7 0,0.96 0.62,1.53 0.64,0.55 1.72,0.55 1.5,0 2.39,-1.05 0.91,-1.06 0.91,-2.82 l 0,-0.4 -1.79,0 z m 3.59,-0.75 0,6.24 -1.8,0 0,-1.66 q -0.61,1 -1.53,1.48 -0.92,0.47 -2.25,0.47 -1.68,0 -2.67,-0.94 -0.99,-0.95 -0.99,-2.53 0,-1.84 1.23,-2.78 1.24,-0.94 3.69,-0.94 l 2.52,0 0,-0.18 q 0,-1.24 -0.82,-1.91 -0.81,-0.68 -2.28,-0.68 -0.94,0 -1.83,0.22 -0.89,0.23 -1.71,0.68 l 0,-1.66 q 0.99,-0.39 1.92,-0.57 0.92,-0.2 1.8,-0.2 2.38,0 3.55,1.23 1.17,1.23 1.17,3.73 z m -19.53,-2.59 q 0.67,-1.21 1.61,-1.79 0.94,-0.58 2.21,-0.58 1.7,0 2.63,1.2 0.93,1.2 0.93,3.4 l 0,6.6 -1.81,0 0,-6.54 q 0,-1.57 -0.55,-2.33 -0.56,-0.76 -1.7,-0.76 -1.4,0 -2.21,0.92 -0.81,0.93 -0.81,2.53 l 0,6.18 -1.81,0 0,-6.54 q 0,-1.58 -0.55,-2.33 -0.56,-0.76 -1.72,-0.76 -1.38,0 -2.19,0.93 -0.81,0.93 -0.81,2.52 l 0,6.18 -1.81,0 0,-10.93 1.81,0 0,1.7 q 0.62,-1.01 1.47,-1.49 0.86,-0.48 2.05,-0.48 1.19,0 2.02,0.61 0.84,0.6 1.24,1.76 z m 294.57,-22.08 0,0.88 -8.26,0 q 0.11,1.85 1.11,2.83 1.01,0.96 2.79,0.96 1.04,0 2,-0.25 0.98,-0.25 1.94,-0.76 l 0,1.7 q -0.97,0.41 -1.98,0.62 -1.02,0.22 -2.07,0.22 -2.61,0 -4.15,-1.53 -1.52,-1.52 -1.52,-4.12 0,-2.68 1.45,-4.25 1.45,-1.59 3.91,-1.59 2.21,0 3.49,1.43 1.29,1.42 1.29,3.86 z m -1.8,-0.53 q 0,-1.47 -0.83,-2.35 -0.8,-0.88 -2.13,-0.88 -1.5,0 -2.41,0.85 -0.9,0.85 -1.04,2.39 l 6.41,0 z m -9.03,-2.81 q -0.3,-0.18 -0.67,-0.26 -0.35,-0.1 -0.78,-0.1 -1.52,0 -2.34,0.99 -0.81,0.99 -0.81,2.84 l 0,5.76 -1.81,0 0,-10.93 1.81,0 0,1.7 q 0.56,-1 1.47,-1.48 0.91,-0.49 2.21,-0.49 0.19,0 0.41,0 0.22,0 0.5,0.1 l 0,1.85 z m -14.33,-0.42 q -1.44,0 -2.28,1.13 -0.84,1.12 -0.84,3.09 0,1.96 0.83,3.09 0.84,1.12 2.29,1.12 1.44,0 2.28,-1.13 0.84,-1.13 0.84,-3.08 0,-1.95 -0.84,-3.08 -0.84,-1.14 -2.28,-1.14 z m 0,-1.53 q 2.35,0 3.68,1.53 1.34,1.52 1.34,4.22 0,2.68 -1.34,4.21 -1.33,1.53 -3.68,1.53 -2.35,0 -3.69,-1.53 -1.33,-1.53 -1.33,-4.21 0,-2.7 1.33,-4.22 1.34,-1.53 3.69,-1.53 z m -9.78,-3.99 1.79,0 0,15.19 -1.79,0 0,-15.19 z m -7.99,5.52 q -1.45,0 -2.29,1.13 -0.84,1.12 -0.84,3.09 0,1.96 0.83,3.09 0.84,1.12 2.3,1.12 1.43,0 2.27,-1.13 0.84,-1.13 0.84,-3.08 0,-1.95 -0.84,-3.08 -0.84,-1.14 -2.27,-1.14 z m 0,-1.53 q 2.34,0 3.68,1.53 1.34,1.52 1.34,4.22 0,2.68 -1.34,4.21 -1.34,1.53 -3.68,1.53 -2.36,0 -3.69,-1.53 -1.33,-1.53 -1.33,-4.21 0,-2.7 1.33,-4.22 1.33,-1.53 3.69,-1.53 z m -9.74,1.93 0,-5.92 1.8,0 0,15.19 -1.8,0 0,-1.64 q -0.56,0.98 -1.43,1.46 -0.86,0.47 -2.07,0.47 -1.99,0 -3.24,-1.58 -1.24,-1.59 -1.24,-4.16 0,-2.58 1.24,-4.16 1.25,-1.59 3.24,-1.59 1.21,0 2.07,0.48 0.87,0.47 1.43,1.45 z m -6.12,3.82 q 0,1.98 0.81,3.11 0.82,1.12 2.25,1.12 1.42,0 2.24,-1.12 0.82,-1.13 0.82,-3.11 0,-1.99 -0.82,-3.11 -0.82,-1.13 -2.24,-1.13 -1.43,0 -2.25,1.13 -0.81,1.12 -0.81,3.11 z m -13.52,-8.59 0,3.11 3.7,0 0,1.39 -3.7,0 0,5.94 q 0,1.34 0.36,1.72 0.38,0.38 1.5,0.38 l 1.84,0 0,1.5 -1.84,0 q -2.08,0 -2.87,-0.77 -0.79,-0.78 -0.79,-2.83 l 0,-5.94 -1.32,0 0,-1.39 1.32,0 0,-3.11 1.8,0 z m -4.72,8.13 0,0.88 -8.27,0 q 0.12,1.85 1.12,2.83 1,0.96 2.79,0.96 1.04,0 2,-0.25 0.98,-0.25 1.94,-0.76 l 0,1.7 q -0.97,0.41 -1.99,0.62 -1.01,0.22 -2.06,0.22 -2.61,0 -4.15,-1.53 -1.52,-1.52 -1.52,-4.12 0,-2.68 1.45,-4.25 1.45,-1.59 3.91,-1.59 2.21,0 3.49,1.43 1.29,1.42 1.29,3.86 z m -1.8,-0.53 q 0,-1.47 -0.83,-2.35 -0.8,-0.88 -2.13,-0.88 -1.5,0 -2.41,0.85 -0.9,0.85 -1.04,2.39 l 6.41,0 z m -16.88,0.53 0,0.88 -8.26,0 q 0.12,1.85 1.12,2.83 1,0.96 2.79,0.96 1.03,0 2,-0.25 0.98,-0.25 1.93,-0.76 l 0,1.7 q -0.96,0.41 -1.98,0.62 -1.01,0.22 -2.06,0.22 -2.62,0 -4.15,-1.53 -1.52,-1.52 -1.52,-4.12 0,-2.68 1.44,-4.25 1.46,-1.59 3.92,-1.59 2.21,0 3.49,1.43 1.28,1.42 1.28,3.86 z m -1.79,-0.53 q 0,-1.47 -0.83,-2.35 -0.8,-0.88 -2.13,-0.88 -1.51,0 -2.41,0.85 -0.9,0.85 -1.04,2.39 l 6.41,0 z m -9.04,-2.81 q -0.3,-0.18 -0.66,-0.26 -0.35,-0.1 -0.78,-0.1 -1.52,0 -2.34,0.99 -0.81,0.99 -0.81,2.84 l 0,5.76 -1.81,0 0,-10.93 1.81,0 0,1.7 q 0.56,-1 1.47,-1.48 0.91,-0.49 2.21,-0.49 0.18,0 0.41,0 0.22,0 0.49,0.1 l 0,1.85 z m -14.32,-0.42 q -1.45,0 -2.29,1.13 -0.84,1.12 -0.84,3.09 0,1.96 0.83,3.09 0.84,1.12 2.3,1.12 1.43,0 2.27,-1.13 0.84,-1.13 0.84,-3.08 0,-1.95 -0.84,-3.08 -0.84,-1.14 -2.27,-1.14 z m 0,-1.53 q 2.34,0 3.68,1.53 1.34,1.52 1.34,4.22 0,2.68 -1.34,4.21 -1.34,1.53 -3.68,1.53 -2.36,0 -3.69,-1.53 -1.33,-1.53 -1.33,-4.21 0,-2.7 1.33,-4.22 1.33,-1.53 3.69,-1.53 z m -9.08,5.75 q 0,-1.99 -0.82,-3.11 -0.81,-1.13 -2.24,-1.13 -1.43,0 -2.25,1.13 -0.81,1.12 -0.81,3.11 0,1.98 0.81,3.11 0.82,1.12 2.25,1.12 1.43,0 2.24,-1.12 0.82,-1.13 0.82,-3.11 z m -6.12,-3.82 q 0.57,-0.98 1.43,-1.45 0.87,-0.48 2.07,-0.48 1.99,0 3.23,1.59 1.25,1.58 1.25,4.16 0,2.57 -1.25,4.16 -1.24,1.58 -3.23,1.58 -1.2,0 -2.07,-0.47 -0.86,-0.48 -1.43,-1.46 l 0,1.64 -1.8,0 0,-15.19 1.8,0 0,5.92 z m -9.03,3.78 q -2.18,0 -3.02,0.49 -0.84,0.5 -0.84,1.7 0,0.96 0.63,1.53 0.63,0.55 1.72,0.55 1.49,0 2.39,-1.05 0.91,-1.06 0.91,-2.82 l 0,-0.4 -1.79,0 z m 3.58,-0.75 0,6.24 -1.79,0 0,-1.66 q -0.62,1 -1.54,1.48 -0.91,0.47 -2.24,0.47 -1.68,0 -2.68,-0.94 -0.98,-0.95 -0.98,-2.53 0,-1.84 1.23,-2.78 1.24,-0.94 3.69,-0.94 l 2.52,0 0,-0.18 q 0,-1.24 -0.82,-1.91 -0.81,-0.68 -2.29,-0.68 -0.94,0 -1.82,0.22 -0.89,0.23 -1.71,0.68 l 0,-1.66 q 0.98,-0.39 1.91,-0.57 0.93,-0.2 1.81,-0.2 2.37,0 3.54,1.23 1.17,1.23 1.17,3.73 z m -14.1,-8.95 1.8,0 0,15.19 -1.8,0 0,-15.19 z m -57.6,1.15 0,3.11 3.71,0 0,1.39 -3.71,0 0,5.94 q 0,1.34 0.37,1.72 0.37,0.38 1.49,0.38 l 1.85,0 0,1.5 -1.85,0 q -2.08,0 -2.87,-0.77 -0.79,-0.78 -0.79,-2.83 l 0,-5.94 -1.32,0 0,-1.39 1.32,0 0,-3.11 1.8,0 z m -14.65,9.73 0,-6.62 1.79,0 0,6.55 q 0,1.55 0.61,2.33 0.6,0.78 1.82,0.78 1.45,0 2.29,-0.93 0.85,-0.93 0.85,-2.53 l 0,-6.2 1.8,0 0,10.93 -1.8,0 0,-1.67 q -0.65,0.99 -1.52,1.48 -0.86,0.48 -2.01,0.48 -1.88,0 -2.86,-1.17 -0.97,-1.18 -0.97,-3.43 z m 4.52,-6.89 0,0 z m -16.78,-2.84 0,3.11 3.7,0 0,1.39 -3.7,0 0,5.94 q 0,1.34 0.36,1.72 0.37,0.38 1.5,0.38 l 1.84,0 0,1.5 -1.84,0 q -2.08,0 -2.87,-0.77 -0.8,-0.78 -0.8,-2.83 l 0,-5.94 -1.31,0 0,-1.39 1.31,0 0,-3.11 1.81,0 z m -5.38,7.44 0,6.6 -1.8,0 0,-6.54 q 0,-1.55 -0.6,-2.32 -0.61,-0.77 -1.82,-0.77 -1.45,0 -2.29,0.92 -0.84,0.93 -0.84,2.53 l 0,6.18 -1.81,0 0,-10.93 1.81,0 0,1.7 q 0.64,-0.99 1.51,-1.48 0.88,-0.49 2.02,-0.49 1.89,0 2.85,1.18 0.97,1.16 0.97,3.42 z m -21.97,2.29 0,-6.62 1.79,0 0,6.55 q 0,1.55 0.61,2.33 0.6,0.78 1.82,0.78 1.45,0 2.29,-0.93 0.85,-0.93 0.85,-2.53 l 0,-6.2 1.8,0 0,10.93 -1.8,0 0,-1.67 q -0.65,0.99 -1.52,1.48 -0.86,0.48 -2,0.48 -1.89,0 -2.87,-1.17 -0.97,-1.18 -0.97,-3.43 z m 4.52,-6.89 0,0 z m -9.84,1.93 0,-5.92 1.8,0 0,15.19 -1.8,0 0,-1.64 q -0.56,0.98 -1.43,1.46 -0.86,0.47 -2.07,0.47 -1.98,0 -3.23,-1.58 -1.24,-1.59 -1.24,-4.16 0,-2.58 1.24,-4.16 1.25,-1.59 3.23,-1.59 1.21,0 2.07,0.48 0.87,0.47 1.43,1.45 z m -6.12,3.82 q 0,1.98 0.81,3.11 0.82,1.12 2.25,1.12 1.42,0 2.24,-1.12 0.82,-1.13 0.82,-3.11 0,-1.99 -0.82,-3.11 -0.82,-1.13 -2.24,-1.13 -1.43,0 -2.25,1.13 -0.81,1.12 -0.81,3.11 z m -6.62,-5.48 1.8,0 0,10.93 -1.8,0 0,-10.93 z m 0,-4.26 1.8,0 0,2.28 -1.8,0 0,-2.28 z m -5.5,5.92 0,-5.92 1.8,0 0,15.19 -1.8,0 0,-1.64 q -0.56,0.98 -1.43,1.46 -0.86,0.47 -2.07,0.47 -1.99,0 -3.24,-1.58 -1.24,-1.59 -1.24,-4.16 0,-2.58 1.24,-4.16 1.25,-1.59 3.24,-1.59 1.21,0 2.07,0.48 0.87,0.47 1.43,1.45 z m -6.12,3.82 q 0,1.98 0.81,3.11 0.82,1.12 2.25,1.12 1.42,0 2.24,-1.12 0.82,-1.13 0.82,-3.11 0,-1.99 -0.82,-3.11 -0.82,-1.13 -2.24,-1.13 -1.43,0 -2.25,1.13 -0.81,1.12 -0.81,3.11 z m -6.62,-5.48 1.8,0 0,10.93 -1.8,0 0,-10.93 z m 0,-4.26 1.8,0 0,2.28 -1.8,0 0,-2.28 z m -3.15,4.68 0,1.68 q -0.76,-0.42 -1.53,-0.63 -0.76,-0.21 -1.54,-0.21 -1.75,0 -2.72,1.11 -0.96,1.1 -0.96,3.11 0,2 0.96,3.11 0.97,1.1 2.72,1.1 0.78,0 1.54,-0.2 0.77,-0.22 1.53,-0.64 l 0,1.67 q -0.75,0.35 -1.56,0.52 -0.8,0.18 -1.71,0.18 -2.47,0 -3.92,-1.55 -1.46,-1.56 -1.46,-4.19 0,-2.68 1.47,-4.21 1.47,-1.54 4.03,-1.54 0.83,0 1.62,0.18 0.79,0.17 1.53,0.51 z m -11.47,3.91 0,6.6 -1.8,0 0,-6.54 q 0,-1.55 -0.6,-2.32 -0.61,-0.77 -1.82,-0.77 -1.45,0 -2.29,0.92 -0.84,0.93 -0.84,2.53 l 0,6.18 -1.81,0 0,-10.93 1.81,0 0,1.7 q 0.64,-0.99 1.51,-1.48 0.88,-0.49 2.02,-0.49 1.89,0 2.85,1.18 0.97,1.16 0.97,3.42 z m -14.64,-4.33 1.8,0 0,10.93 -1.8,0 0,-10.93 z m 0,-4.26 1.8,0 0,2.28 -1.8,0 0,-2.28 z m 309.95,-19.06 q -0.3,-0.18 -0.66,-0.26 -0.35,-0.1 -0.78,-0.1 -1.53,0 -2.35,0.99 -0.81,0.99 -0.81,2.84 l 0,5.76 -1.8,0 0,-10.93 1.8,0 0,1.7 q 0.57,-1 1.48,-1.48 0.9,-0.49 2.2,-0.49 0.19,0 0.41,0 0.23,0 0.5,0.1 l 0,1.85 z m -14.32,-0.42 q -1.45,0 -2.29,1.13 -0.84,1.12 -0.84,3.09 0,1.96 0.83,3.09 0.84,1.12 2.3,1.12 1.43,0 2.27,-1.13 0.84,-1.13 0.84,-3.08 0,-1.95 -0.84,-3.08 -0.84,-1.14 -2.27,-1.14 z m 0,-1.53 q 2.34,0 3.68,1.53 1.34,1.52 1.34,4.22 0,2.68 -1.34,4.21 -1.34,1.53 -3.68,1.53 -2.36,0 -3.7,-1.53 -1.32,-1.53 -1.32,-4.21 0,-2.7 1.32,-4.22 1.34,-1.53 3.7,-1.53 z m -15.2,9.56 0,5.81 -1.81,0 0,-15.1 1.81,0 0,1.66 q 0.57,-0.98 1.43,-1.45 0.87,-0.48 2.07,-0.48 1.99,0 3.23,1.59 1.25,1.58 1.25,4.16 0,2.57 -1.25,4.16 -1.24,1.58 -3.23,1.58 -1.2,0 -2.07,-0.47 -0.86,-0.48 -1.43,-1.46 z m 6.11,-3.81 q 0,-1.99 -0.82,-3.11 -0.81,-1.13 -2.23,-1.13 -1.43,0 -2.25,1.13 -0.81,1.12 -0.81,3.11 0,1.98 0.81,3.11 0.82,1.12 2.25,1.12 1.42,0 2.23,-1.12 0.82,-1.13 0.82,-3.11 z m -18.82,-3.38 q 0.67,-1.21 1.61,-1.79 0.93,-0.58 2.2,-0.58 1.71,0 2.64,1.2 0.93,1.2 0.93,3.4 l 0,6.6 -1.81,0 0,-6.54 q 0,-1.57 -0.56,-2.33 -0.55,-0.76 -1.69,-0.76 -1.4,0 -2.21,0.92 -0.81,0.93 -0.81,2.53 l 0,6.18 -1.81,0 0,-6.54 q 0,-1.58 -0.56,-2.33 -0.55,-0.76 -1.71,-0.76 -1.38,0 -2.19,0.93 -0.81,0.93 -0.81,2.52 l 0,6.18 -1.81,0 0,-10.93 1.81,0 0,1.7 q 0.61,-1.01 1.47,-1.49 0.86,-0.48 2.04,-0.48 1.2,0 2.03,0.61 0.83,0.6 1.24,1.76 z m -11.47,2.92 0,0.88 -8.26,0 q 0.12,1.85 1.11,2.83 1.01,0.96 2.8,0.96 1.03,0 2,-0.25 0.97,-0.25 1.93,-0.76 l 0,1.7 q -0.97,0.41 -1.98,0.62 -1.02,0.22 -2.06,0.22 -2.62,0 -4.15,-1.53 -1.53,-1.52 -1.53,-4.12 0,-2.68 1.45,-4.25 1.45,-1.59 3.92,-1.59 2.2,0 3.48,1.43 1.29,1.42 1.29,3.86 z m -1.8,-0.53 q 0,-1.47 -0.83,-2.35 -0.8,-0.88 -2.13,-0.88 -1.5,0 -2.41,0.85 -0.9,0.85 -1.03,2.39 l 6.4,0 z m -13.63,-7.6 0,3.11 3.7,0 0,1.39 -3.7,0 0,5.94 q 0,1.34 0.36,1.72 0.37,0.38 1.5,0.38 l 1.84,0 0,1.5 -1.84,0 q -2.08,0 -2.87,-0.77 -0.8,-0.78 -0.8,-2.83 l 0,-5.94 -1.31,0 0,-1.39 1.31,0 0,-3.11 1.81,0 z m -122.88,4.77 0,-5.92 1.8,0 0,15.19 -1.8,0 0,-1.64 q -0.57,0.98 -1.44,1.46 -0.85,0.47 -2.07,0.47 -1.98,0 -3.23,-1.58 -1.24,-1.59 -1.24,-4.16 0,-2.58 1.24,-4.16 1.25,-1.59 3.23,-1.59 1.22,0 2.07,0.48 0.87,0.47 1.44,1.45 z m -6.12,3.82 q 0,1.98 0.81,3.11 0.82,1.12 2.24,1.12 1.43,0 2.25,-1.12 0.82,-1.13 0.82,-3.11 0,-1.99 -0.82,-3.11 -0.82,-1.13 -2.25,-1.13 -1.42,0 -2.24,1.13 -0.81,1.12 -0.81,3.11 z m -9.07,-4.22 q -1.44,0 -2.28,1.13 -0.84,1.12 -0.84,3.09 0,1.96 0.83,3.09 0.84,1.12 2.29,1.12 1.44,0 2.28,-1.13 0.84,-1.13 0.84,-3.08 0,-1.95 -0.84,-3.08 -0.84,-1.14 -2.28,-1.14 z m 0,-1.53 q 2.35,0 3.69,1.53 1.33,1.52 1.33,4.22 0,2.68 -1.33,4.21 -1.34,1.53 -3.69,1.53 -2.35,0 -3.69,-1.53 -1.33,-1.53 -1.33,-4.21 0,-2.7 1.33,-4.22 1.34,-1.53 3.69,-1.53 z m -15.21,2.37 q 0.67,-1.21 1.61,-1.79 0.94,-0.58 2.21,-0.58 1.71,0 2.63,1.2 0.93,1.2 0.93,3.4 l 0,6.6 -1.8,0 0,-6.54 q 0,-1.57 -0.56,-2.33 -0.56,-0.76 -1.7,-0.76 -1.4,0 -2.21,0.92 -0.81,0.93 -0.81,2.53 l 0,6.18 -1.8,0 0,-6.54 q 0,-1.58 -0.56,-2.33 -0.56,-0.76 -1.72,-0.76 -1.38,0 -2.19,0.93 -0.81,0.93 -0.81,2.52 l 0,6.18 -1.8,0 0,-10.93 1.8,0 0,1.7 q 0.62,-1.01 1.48,-1.49 0.86,-0.48 2.04,-0.48 1.19,0 2.02,0.61 0.84,0.6 1.24,1.76 z m -11.97,-1.78 0,1.7 q -0.76,-0.39 -1.59,-0.59 -0.82,-0.19 -1.69,-0.19 -1.34,0 -2.02,0.41 -0.66,0.41 -0.66,1.23 0,0.62 0.48,0.98 0.48,0.36 1.92,0.68 l 0.62,0.14 q 1.91,0.41 2.71,1.16 0.81,0.74 0.81,2.08 0,1.52 -1.21,2.41 -1.2,0.89 -3.31,0.89 -0.88,0 -1.83,-0.18 -0.95,-0.16 -2.01,-0.51 l 0,-1.85 q 1,0.52 1.97,0.78 0.96,0.25 1.91,0.25 1.27,0 1.95,-0.43 0.69,-0.43 0.69,-1.23 0,-0.73 -0.5,-1.12 -0.49,-0.39 -2.16,-0.75 l -0.62,-0.15 q -1.67,-0.35 -2.42,-1.07 -0.74,-0.73 -0.74,-2 0,-1.55 1.1,-2.39 1.09,-0.84 3.1,-0.84 1,0 1.88,0.15 0.87,0.15 1.62,0.44 z m -19.86,6.3 0,-6.62 1.8,0 0,6.55 q 0,1.55 0.61,2.33 0.6,0.78 1.81,0.78 1.46,0 2.3,-0.93 0.85,-0.93 0.85,-2.53 l 0,-6.2 1.79,0 0,10.93 -1.79,0 0,-1.67 q -0.66,0.99 -1.53,1.48 -0.86,0.48 -2,0.48 -1.88,0 -2.86,-1.17 -0.98,-1.18 -0.98,-3.43 z m 4.52,-6.89 0,0 z m -9.88,0.27 1.8,0 0,10.93 -1.8,0 0,-10.93 z m 0,-4.26 1.8,0 0,2.28 -1.8,0 0,-2.28 z m -2.95,9.28 0,0.88 -8.26,0 q 0.12,1.85 1.11,2.83 1.01,0.96 2.8,0.96 1.03,0 2,-0.25 0.98,-0.25 1.93,-0.76 l 0,1.7 q -0.96,0.41 -1.98,0.62 -1.02,0.22 -2.06,0.22 -2.62,0 -4.15,-1.53 -1.52,-1.52 -1.52,-4.12 0,-2.68 1.44,-4.25 1.46,-1.59 3.92,-1.59 2.2,0 3.48,1.43 1.29,1.42 1.29,3.86 z m -1.79,-0.53 q 0,-1.47 -0.83,-2.35 -0.8,-0.88 -2.13,-0.88 -1.51,0 -2.42,0.85 -0.89,0.85 -1.03,2.39 l 6.41,0 z m -21.92,-3.23 q -1.44,0 -2.28,1.13 -0.84,1.12 -0.84,3.09 0,1.96 0.83,3.09 0.84,1.12 2.29,1.12 1.44,0 2.28,-1.13 0.84,-1.13 0.84,-3.08 0,-1.95 -0.84,-3.08 -0.84,-1.14 -2.28,-1.14 z m 0,-1.53 q 2.35,0 3.68,1.53 1.34,1.52 1.34,4.22 0,2.68 -1.34,4.21 -1.33,1.53 -3.68,1.53 -2.35,0 -3.69,-1.53 -1.33,-1.53 -1.33,-4.21 0,-2.7 1.33,-4.22 1.34,-1.53 3.69,-1.53 z m -9.73,1.93 0,-5.92 1.79,0 0,15.19 -1.79,0 0,-1.64 q -0.57,0.98 -1.44,1.46 -0.86,0.47 -2.07,0.47 -1.98,0 -3.23,-1.58 -1.24,-1.59 -1.24,-4.16 0,-2.58 1.24,-4.16 1.25,-1.59 3.23,-1.59 1.21,0 2.07,0.48 0.87,0.47 1.44,1.45 z m -6.13,3.82 q 0,1.98 0.81,3.11 0.82,1.12 2.25,1.12 1.42,0 2.25,-1.12 0.82,-1.13 0.82,-3.11 0,-1.99 -0.82,-3.11 -0.83,-1.13 -2.25,-1.13 -1.43,0 -2.25,1.13 -0.81,1.12 -0.81,3.11 z m -12.94,-3.82 0,-5.92 1.8,0 0,15.19 -1.8,0 0,-1.64 q -0.56,0.98 -1.43,1.46 -0.86,0.47 -2.07,0.47 -1.99,0 -3.24,-1.58 -1.24,-1.59 -1.24,-4.16 0,-2.58 1.24,-4.16 1.25,-1.59 3.24,-1.59 1.21,0 2.07,0.48 0.87,0.47 1.43,1.45 z m -6.12,3.82 q 0,1.98 0.81,3.11 0.82,1.12 2.25,1.12 1.42,0 2.24,-1.12 0.82,-1.13 0.82,-3.11 0,-1.99 -0.82,-3.11 -0.82,-1.13 -2.24,-1.13 -1.43,0 -2.25,1.13 -0.81,1.12 -0.81,3.11 z m -4.02,-0.46 0,0.88 -8.27,0 q 0.12,1.85 1.12,2.83 1,0.96 2.79,0.96 1.04,0 2,-0.25 0.98,-0.25 1.94,-0.76 l 0,1.7 q -0.97,0.41 -1.99,0.62 -1.01,0.22 -2.06,0.22 -2.61,0 -4.15,-1.53 -1.52,-1.52 -1.52,-4.12 0,-2.68 1.45,-4.25 1.45,-1.59 3.91,-1.59 2.21,0 3.49,1.43 1.29,1.42 1.29,3.86 z m -1.8,-0.53 q 0,-1.47 -0.83,-2.35 -0.8,-0.88 -2.13,-0.88 -1.5,0 -2.41,0.85 -0.9,0.85 -1.04,2.39 l 6.41,0 z m -11.02,-4.17 0,1.7 q -0.76,-0.39 -1.58,-0.59 -0.82,-0.19 -1.7,-0.19 -1.34,0 -2.01,0.41 -0.66,0.41 -0.66,1.23 0,0.62 0.48,0.98 0.47,0.36 1.92,0.68 l 0.61,0.14 q 1.92,0.41 2.72,1.16 0.81,0.74 0.81,2.08 0,1.52 -1.21,2.41 -1.2,0.89 -3.31,0.89 -0.88,0 -1.84,-0.18 -0.94,-0.16 -2,-0.51 l 0,-1.85 q 1,0.52 1.96,0.78 0.97,0.25 1.92,0.25 1.27,0 1.95,-0.43 0.68,-0.43 0.68,-1.23 0,-0.73 -0.49,-1.12 -0.49,-0.39 -2.16,-0.75 l -0.63,-0.15 q -1.67,-0.35 -2.41,-1.07 -0.74,-0.73 -0.74,-2 0,-1.55 1.09,-2.39 1.1,-0.84 3.11,-0.84 0.99,0 1.87,0.15 0.88,0.15 1.62,0.44 z m 391.69,-16.865 2.06,0 0,1.679 -1.6,3.125 -1.26,0 0.8,-3.125 0,-1.679 z m -6.53,-11.563 0,3.105 3.7,0 0,1.397 -3.7,0 0,5.937 q 0,1.338 0.36,1.719 0.37,0.381 1.5,0.381 l 1.84,0 0,1.504 -1.84,0 q -2.08,0 -2.88,-0.772 -0.79,-0.781 -0.79,-2.832 l 0,-5.937 -1.31,0 0,-1.397 1.31,0 0,-3.105 1.81,0 z m -7.32,3.105 1.79,0 0,10.938 -1.79,0 0,-10.938 z m 0,-4.257 1.79,0 0,2.275 -1.79,0 0,-2.275 z m -5.55,0 1.8,0 0,15.195 -1.8,0 0,-15.195 z m -2.95,9.277 0,0.879 -8.26,0 q 0.12,1.855 1.11,2.832 1.01,0.967 2.79,0.967 1.04,0 2.01,-0.254 0.97,-0.254 1.93,-0.762 l 0,1.699 q -0.97,0.41 -1.98,0.625 -1.02,0.215 -2.06,0.215 -2.62,0 -4.15,-1.523 -1.53,-1.524 -1.53,-4.121 0,-2.686 1.45,-4.258 1.45,-1.582 3.91,-1.582 2.21,0 3.49,1.426 1.29,1.416 1.29,3.857 z m -1.8,-0.527 q 0,-1.475 -0.83,-2.354 -0.8,-0.879 -2.13,-0.879 -1.5,0 -2.41,0.85 -0.9,0.849 -1.03,2.392 l 6.4,0 z m -19.42,0.849 q 0,-1.953 -0.81,-3.027 -0.8,-1.074 -2.26,-1.074 -1.44,0 -2.25,1.074 -0.8,1.074 -0.8,3.027 0,1.944 0.8,3.018 0.81,1.074 2.25,1.074 1.46,0 2.26,-1.074 0.81,-1.074 0.81,-3.018 z m 1.8,4.239 q 0,2.793 -1.24,4.15 -1.24,1.367 -3.8,1.367 -0.95,0 -1.79,-0.146 -0.84,-0.137 -1.63,-0.43 l 0,-1.748 q 0.79,0.43 1.56,0.635 0.77,0.205 1.57,0.205 1.77,0 2.65,-0.928 0.88,-0.918 0.88,-2.783 l 0,-0.889 q -0.56,0.967 -1.43,1.445 -0.87,0.479 -2.08,0.479 -2.01,0 -3.24,-1.533 -1.23,-1.533 -1.23,-4.063 0,-2.539 1.23,-4.072 1.23,-1.533 3.24,-1.533 1.21,0 2.08,0.478 0.87,0.479 1.43,1.446 l 0,-1.661 1.8,0 0,9.581 z m -12.6,-5.245 0,6.602 -1.8,0 0,-6.543 q 0,-1.553 -0.6,-2.324 -0.61,-0.772 -1.82,-0.772 -1.46,0 -2.3,0.928 -0.83,0.928 -0.83,2.529 l 0,6.182 -1.81,0 0,-10.938 1.81,0 0,1.7 q 0.64,-0.987 1.51,-1.475 0.88,-0.488 2.02,-0.488 1.88,0 2.85,1.172 0.97,1.162 0.97,3.427 z m -14.64,-4.336 1.8,0 0,10.938 -1.8,0 0,-10.938 z m 0,-4.257 1.8,0 0,2.275 -1.8,0 0,-2.275 z m -3.14,4.677 0,1.68 q -0.77,-0.42 -1.54,-0.625 -0.76,-0.215 -1.54,-0.215 -1.75,0 -2.72,1.114 -0.96,1.103 -0.96,3.105 0,2.002 0.96,3.115 0.97,1.104 2.72,1.104 0.78,0 1.54,-0.205 0.77,-0.215 1.54,-0.635 l 0,1.66 q -0.76,0.352 -1.57,0.527 -0.8,0.176 -1.71,0.176 -2.47,0 -3.92,-1.553 -1.46,-1.552 -1.46,-4.189 0,-2.676 1.47,-4.209 1.47,-1.533 4.03,-1.533 0.83,0 1.62,0.176 0.79,0.166 1.54,0.507 z m -13.42,-0.42 1.79,0 0,10.938 -1.79,0 0,-10.938 z m 0,-4.257 1.79,0 0,2.275 -1.79,0 0,-2.275 z m -3.46,4.58 0,1.699 q -0.76,-0.391 -1.58,-0.586 -0.82,-0.195 -1.7,-0.195 -1.34,0 -2.01,0.41 -0.67,0.41 -0.67,1.23 0,0.625 0.48,0.987 0.48,0.351 1.93,0.673 l 0.61,0.137 q 1.91,0.41 2.72,1.162 0.81,0.743 0.81,2.08 0,1.524 -1.21,2.413 -1.21,0.888 -3.32,0.888 -0.87,0 -1.83,-0.176 -0.95,-0.166 -2,-0.507 l 0,-1.856 q 0.99,0.518 1.96,0.781 0.97,0.254 1.91,0.254 1.27,0 1.96,-0.429 0.68,-0.44 0.68,-1.231 0,-0.732 -0.5,-1.123 -0.49,-0.391 -2.16,-0.752 l -0.62,-0.146 q -1.67,-0.352 -2.41,-1.075 -0.74,-0.732 -0.74,-2.002 0,-1.543 1.09,-2.382 1.09,-0.84 3.1,-0.84 1,0 1.88,0.146 0.88,0.147 1.62,0.44 z m -12.52,-0.323 1.8,0 0,10.938 -1.8,0 0,-10.938 z m 0,-4.257 1.8,0 0,2.275 -1.8,0 0,-2.275 z m -10.96,13.554 0,5.801 -1.8,0 0,-15.098 1.8,0 0,1.661 q 0.57,-0.977 1.43,-1.446 0.87,-0.478 2.07,-0.478 1.99,0 3.23,1.582 1.25,1.582 1.25,4.16 0,2.578 -1.25,4.16 -1.24,1.582 -3.23,1.582 -1.2,0 -2.07,-0.469 -0.86,-0.478 -1.43,-1.455 z m 6.12,-3.818 q 0,-1.982 -0.82,-3.105 -0.81,-1.133 -2.24,-1.133 -1.43,0 -2.25,1.133 -0.81,1.123 -0.81,3.105 0,1.982 0.81,3.115 0.82,1.123 2.25,1.123 1.43,0 2.24,-1.123 0.82,-1.133 0.82,-3.115 z m -13.4,-5.479 1.8,0 0,10.938 -1.8,0 0,-10.938 z m 0,-4.257 1.8,0 0,2.275 -1.8,0 0,-2.275 z m -5.5,5.918 0,-5.918 1.8,0 0,15.195 -1.8,0 0,-1.641 q -0.57,0.977 -1.43,1.455 -0.86,0.469 -2.08,0.469 -1.98,0 -3.23,-1.582 -1.24,-1.582 -1.24,-4.16 0,-2.578 1.24,-4.16 1.25,-1.582 3.23,-1.582 1.22,0 2.08,0.478 0.86,0.469 1.43,1.446 z m -6.12,3.818 q 0,1.982 0.81,3.115 0.82,1.123 2.24,1.123 1.43,0 2.25,-1.123 0.82,-1.133 0.82,-3.115 0,-1.982 -0.82,-3.105 -0.82,-1.133 -2.25,-1.133 -1.42,0 -2.24,1.133 -0.81,1.123 -0.81,3.105 z m -8.37,-0.04 q -2.18,0 -3.02,0.498 -0.84,0.498 -0.84,1.699 0,0.957 0.63,1.524 0.63,0.556 1.71,0.556 1.5,0 2.4,-1.054 0.91,-1.065 0.91,-2.823 l 0,-0.4 -1.79,0 z m 3.58,-0.742 0,6.24 -1.79,0 0,-1.66 q -0.62,0.996 -1.54,1.474 -0.92,0.469 -2.24,0.469 -1.68,0 -2.68,-0.937 -0.99,-0.948 -0.99,-2.53 0,-1.845 1.23,-2.783 1.24,-0.937 3.7,-0.937 l 2.52,0 0,-0.176 q 0,-1.24 -0.82,-1.914 -0.82,-0.684 -2.29,-0.684 -0.94,0 -1.83,0.225 -0.88,0.224 -1.71,0.674 l 0,-1.66 q 0.99,-0.381 1.92,-0.567 0.93,-0.195 1.81,-0.195 2.37,0 3.54,1.23 1.17,1.231 1.17,3.731 z m -144.56,-3.018 q -0.3,-0.176 -0.66,-0.254 -0.35,-0.09 -0.78,-0.09 -1.53,0 -2.35,0.996 -0.81,0.987 -0.81,2.842 l 0,5.762 -1.8,0 0,-10.938 1.8,0 0,1.7 q 0.57,-0.996 1.48,-1.475 0.91,-0.488 2.2,-0.488 0.19,0 0.41,0.03 0.23,0.02 0.5,0.07 l 0,1.846 z m -19.22,4.942 0,-6.622 1.8,0 0,6.553 q 0,1.553 0.61,2.334 0.6,0.772 1.81,0.772 1.46,0 2.3,-0.928 0.85,-0.928 0.85,-2.529 l 0,-6.202 1.79,0 0,10.938 -1.79,0 0,-1.68 q -0.66,0.996 -1.53,1.485 -0.86,0.478 -2,0.478 -1.88,0 -2.86,-1.172 -0.98,-1.172 -0.98,-3.427 z m 4.52,-6.885 0,0 z m -10.41,-2.842 0,3.105 3.71,0 0,1.397 -3.71,0 0,5.937 q 0,1.338 0.37,1.719 0.37,0.381 1.49,0.381 l 1.85,0 0,1.504 -1.85,0 q -2.08,0 -2.87,-0.772 -0.79,-0.781 -0.79,-2.832 l 0,-5.937 -1.32,0 0,-1.397 1.32,0 0,-3.105 1.8,0 z m -4.72,8.125 0,0.879 -8.26,0 q 0.11,1.855 1.11,2.832 1.01,0.967 2.79,0.967 1.04,0 2,-0.254 0.98,-0.254 1.94,-0.762 l 0,1.699 q -0.97,0.41 -1.98,0.625 -1.02,0.215 -2.07,0.215 -2.61,0 -4.15,-1.523 -1.52,-1.524 -1.52,-4.121 0,-2.686 1.45,-4.258 1.45,-1.582 3.91,-1.582 2.21,0 3.49,1.426 1.29,1.416 1.29,3.857 z m -1.8,-0.527 q 0,-1.475 -0.83,-2.354 -0.8,-0.879 -2.13,-0.879 -1.5,0 -2.41,0.85 -0.9,0.849 -1.04,2.392 l 6.41,0 z m -13.63,-7.598 0,3.105 3.7,0 0,1.397 -3.7,0 0,5.937 q 0,1.338 0.36,1.719 0.37,0.381 1.49,0.381 l 1.85,0 0,1.504 -1.85,0 q -2.08,0 -2.87,-0.772 -0.79,-0.781 -0.79,-2.832 l 0,-5.937 -1.32,0 0,-1.397 1.32,0 0,-3.105 1.81,0 z m -4.92,3.525 0,1.68 q -0.77,-0.42 -1.54,-0.625 -0.76,-0.215 -1.54,-0.215 -1.75,0 -2.71,1.114 -0.97,1.103 -0.97,3.105 0,2.002 0.97,3.115 0.96,1.104 2.71,1.104 0.78,0 1.54,-0.205 0.77,-0.215 1.54,-0.635 l 0,1.66 q -0.76,0.352 -1.57,0.527 -0.8,0.176 -1.71,0.176 -2.47,0 -3.92,-1.553 -1.46,-1.552 -1.46,-4.189 0,-2.676 1.47,-4.209 1.47,-1.533 4.03,-1.533 0.83,0 1.62,0.176 0.79,0.166 1.54,0.507 z m -10.82,4.6 0,0.879 -8.27,0 q 0.12,1.855 1.12,2.832 1,0.967 2.79,0.967 1.04,0 2,-0.254 0.98,-0.254 1.94,-0.762 l 0,1.699 q -0.97,0.41 -1.99,0.625 -1.01,0.215 -2.06,0.215 -2.61,0 -4.15,-1.523 -1.52,-1.524 -1.52,-4.121 0,-2.686 1.44,-4.258 1.46,-1.582 3.92,-1.582 2.21,0 3.49,1.426 1.29,1.416 1.29,3.857 z m -1.8,-0.527 q 0,-1.475 -0.83,-2.354 -0.8,-0.879 -2.13,-0.879 -1.5,0 -2.41,0.85 -0.9,0.849 -1.04,2.392 l 6.41,0 z m -11.02,-4.17 0,1.699 q -0.76,-0.391 -1.58,-0.586 -0.82,-0.195 -1.7,-0.195 -1.34,0 -2.01,0.41 -0.66,0.41 -0.66,1.23 0,0.625 0.47,0.987 0.48,0.351 1.93,0.673 l 0.61,0.137 q 1.92,0.41 2.72,1.162 0.81,0.743 0.81,2.08 0,1.524 -1.21,2.413 -1.2,0.888 -3.31,0.888 -0.88,0 -1.84,-0.176 -0.95,-0.166 -2,-0.507 l 0,-1.856 q 1,0.518 1.96,0.781 0.97,0.254 1.92,0.254 1.27,0 1.95,-0.429 0.68,-0.44 0.68,-1.231 0,-0.732 -0.49,-1.123 -0.49,-0.391 -2.16,-0.752 l -0.63,-0.146 q -1.67,-0.352 -2.41,-1.075 -0.74,-0.732 -0.74,-2.002 0,-1.543 1.09,-2.382 1.1,-0.84 3.11,-0.84 0.99,0 1.87,0.146 0.88,0.147 1.62,0.44 z m -10.57,4.013 0,6.602 -1.8,0 0,-6.543 q 0,-1.553 -0.61,-2.324 -0.6,-0.772 -1.81,-0.772 -1.46,0 -2.3,0.928 -0.84,0.928 -0.84,2.529 l 0,6.182 -1.8,0 0,-10.938 1.8,0 0,1.7 q 0.65,-0.987 1.52,-1.475 0.88,-0.488 2.02,-0.488 1.88,0 2.85,1.172 0.97,1.162 0.97,3.427 z m -17.08,-3.076 q -1.45,0 -2.29,1.133 -0.84,1.123 -0.84,3.086 0,1.963 0.83,3.096 0.84,1.123 2.3,1.123 1.43,0 2.27,-1.133 0.84,-1.133 0.84,-3.086 0,-1.943 -0.84,-3.076 -0.84,-1.143 -2.27,-1.143 z m 0,-1.523 q 2.34,0 3.68,1.523 1.34,1.524 1.34,4.219 0,2.686 -1.34,4.219 -1.34,1.523 -3.68,1.523 -2.36,0 -3.69,-1.523 -1.33,-1.533 -1.33,-4.219 0,-2.695 1.33,-4.219 1.33,-1.523 3.69,-1.523 z m -7.39,0.683 0,1.68 q -0.76,-0.42 -1.53,-0.625 -0.76,-0.215 -1.54,-0.215 -1.75,0 -2.72,1.114 -0.96,1.103 -0.96,3.105 0,2.002 0.96,3.115 0.97,1.104 2.72,1.104 0.78,0 1.54,-0.205 0.77,-0.215 1.53,-0.635 l 0,1.66 q -0.75,0.352 -1.56,0.527 -0.8,0.176 -1.71,0.176 -2.47,0 -3.92,-1.553 -1.46,-1.552 -1.46,-4.189 0,-2.676 1.47,-4.209 1.47,-1.533 4.03,-1.533 0.83,0 1.62,0.176 0.79,0.166 1.53,0.507 z m 405.93,-16.962 2.06,0 0,1.679 -1.6,3.125 -1.26,0 0.8,-3.125 0,-1.679 z m -6.53,-11.563 0,3.105 3.7,0 0,1.397 -3.7,0 0,5.937 q 0,1.338 0.36,1.719 0.37,0.381 1.49,0.381 l 1.85,0 0,1.504 -1.85,0 q -2.08,0 -2.87,-0.772 -0.79,-0.781 -0.79,-2.832 l 0,-5.937 -1.32,0 0,-1.397 1.32,0 0,-3.105 1.81,0 z m -4.73,8.125 0,0.879 -8.26,0 q 0.12,1.855 1.11,2.832 1.01,0.967 2.8,0.967 1.03,0 2,-0.254 0.98,-0.254 1.93,-0.762 l 0,1.699 q -0.96,0.41 -1.98,0.625 -1.02,0.215 -2.06,0.215 -2.62,0 -4.15,-1.523 -1.52,-1.524 -1.52,-4.121 0,-2.686 1.44,-4.258 1.46,-1.582 3.92,-1.582 2.2,0 3.48,1.426 1.29,1.416 1.29,3.857 z m -1.79,-0.527 q 0,-1.475 -0.83,-2.354 -0.81,-0.879 -2.13,-0.879 -1.51,0 -2.42,0.85 -0.89,0.849 -1.03,2.392 l 6.41,0 z m -18.54,-2.393 q 0.67,-1.211 1.61,-1.787 0.94,-0.576 2.21,-0.576 1.71,0 2.64,1.201 0.92,1.191 0.92,3.398 l 0,6.602 -1.8,0 0,-6.543 q 0,-1.572 -0.56,-2.334 -0.56,-0.762 -1.7,-0.762 -1.4,0 -2.21,0.928 -0.81,0.928 -0.81,2.529 l 0,6.182 -1.8,0 0,-6.543 q 0,-1.582 -0.56,-2.334 -0.56,-0.762 -1.72,-0.762 -1.38,0 -2.19,0.938 -0.81,0.928 -0.81,2.519 l 0,6.182 -1.8,0 0,-10.938 1.8,0 0,1.7 q 0.62,-1.006 1.48,-1.485 0.86,-0.478 2.04,-0.478 1.19,0 2.02,0.605 0.84,0.606 1.24,1.758 z m -15.81,3.34 q -2.18,0 -3.02,0.498 -0.84,0.498 -0.84,1.699 0,0.957 0.63,1.524 0.63,0.556 1.72,0.556 1.49,0 2.39,-1.054 0.91,-1.065 0.91,-2.823 l 0,-0.4 -1.79,0 z m 3.58,-0.742 0,6.24 -1.79,0 0,-1.66 q -0.62,0.996 -1.54,1.474 -0.91,0.469 -2.24,0.469 -1.68,0 -2.68,-0.937 -0.98,-0.948 -0.98,-2.53 0,-1.845 1.23,-2.783 1.24,-0.937 3.69,-0.937 l 2.52,0 0,-0.176 q 0,-1.24 -0.82,-1.914 -0.81,-0.684 -2.29,-0.684 -0.94,0 -1.82,0.225 -0.89,0.224 -1.71,0.674 l 0,-1.66 q 0.98,-0.381 1.91,-0.567 0.93,-0.195 1.81,-0.195 2.37,0 3.54,1.23 1.17,1.231 1.17,3.731 z m -20.99,-7.803 0,3.105 3.7,0 0,1.397 -3.7,0 0,5.937 q 0,1.338 0.36,1.719 0.37,0.381 1.49,0.381 l 1.85,0 0,1.504 -1.85,0 q -2.08,0 -2.87,-0.772 -0.79,-0.781 -0.79,-2.832 l 0,-5.937 -1.32,0 0,-1.397 1.32,0 0,-3.105 1.81,0 z m -7.33,3.105 1.8,0 0,10.938 -1.8,0 0,-10.938 z m 0,-4.257 1.8,0 0,2.275 -1.8,0 0,-2.275 z m -3.45,4.58 0,1.699 q -0.77,-0.391 -1.59,-0.586 -0.82,-0.195 -1.69,-0.195 -1.34,0 -2.02,0.41 -0.66,0.41 -0.66,1.23 0,0.625 0.48,0.987 0.48,0.351 1.92,0.673 l 0.62,0.137 q 1.91,0.41 2.71,1.162 0.81,0.743 0.81,2.08 0,1.524 -1.21,2.413 -1.2,0.888 -3.31,0.888 -0.88,0 -1.84,-0.176 -0.94,-0.166 -2,-0.507 l 0,-1.856 q 1,0.518 1.97,0.781 0.96,0.254 1.91,0.254 1.27,0 1.95,-0.429 0.69,-0.44 0.69,-1.231 0,-0.732 -0.5,-1.123 -0.49,-0.391 -2.16,-0.752 l -0.62,-0.146 q -1.67,-0.352 -2.42,-1.075 -0.74,-0.732 -0.74,-2.002 0,-1.543 1.09,-2.382 1.1,-0.84 3.11,-0.84 1,0 1.88,0.146 0.87,0.147 1.62,0.44 z m -15.25,1.357 q -0.3,-0.176 -0.66,-0.254 -0.35,-0.09 -0.78,-0.09 -1.53,0 -2.35,0.996 -0.81,0.987 -0.81,2.842 l 0,5.762 -1.8,0 0,-10.938 1.8,0 0,1.7 q 0.57,-0.996 1.48,-1.475 0.91,-0.488 2.2,-0.488 0.19,0 0.41,0.03 0.23,0.02 0.5,0.07 l 0,1.846 z m -14.32,-0.42 q -1.45,0 -2.29,1.133 -0.84,1.123 -0.84,3.086 0,1.963 0.83,3.096 0.84,1.123 2.3,1.123 1.43,0 2.27,-1.133 0.84,-1.133 0.84,-3.086 0,-1.943 -0.84,-3.076 -0.84,-1.143 -2.27,-1.143 z m 0,-1.523 q 2.34,0 3.68,1.523 1.34,1.524 1.34,4.219 0,2.686 -1.34,4.219 -1.34,1.523 -3.68,1.523 -2.36,0 -3.7,-1.523 -1.32,-1.533 -1.32,-4.219 0,-2.695 1.32,-4.219 1.34,-1.523 3.7,-1.523 z m -9.79,-3.994 1.8,0 0,15.195 -1.8,0 0,-15.195 z m -7.99,5.517 q -1.44,0 -2.28,1.133 -0.84,1.123 -0.84,3.086 0,1.963 0.83,3.096 0.84,1.123 2.29,1.123 1.44,0 2.28,-1.133 0.84,-1.133 0.84,-3.086 0,-1.943 -0.84,-3.076 -0.84,-1.143 -2.28,-1.143 z m 0,-1.523 q 2.35,0 3.68,1.523 1.34,1.524 1.34,4.219 0,2.686 -1.34,4.219 -1.33,1.523 -3.68,1.523 -2.35,0 -3.69,-1.523 -1.33,-1.533 -1.33,-4.219 0,-2.695 1.33,-4.219 1.34,-1.523 3.69,-1.523 z m -9.73,1.924 0,-5.918 1.79,0 0,15.195 -1.79,0 0,-1.641 q -0.57,0.977 -1.44,1.455 -0.86,0.469 -2.07,0.469 -1.98,0 -3.23,-1.582 -1.24,-1.582 -1.24,-4.16 0,-2.578 1.24,-4.16 1.25,-1.582 3.23,-1.582 1.21,0 2.07,0.478 0.87,0.469 1.44,1.446 z m -6.13,3.818 q 0,1.982 0.81,3.115 0.82,1.123 2.25,1.123 1.43,0 2.25,-1.123 0.82,-1.133 0.82,-3.115 0,-1.982 -0.82,-3.105 -0.82,-1.133 -2.25,-1.133 -1.43,0 -2.25,1.133 -0.81,1.123 -0.81,3.105 z m -180.48,-3.379 q 0.67,-1.211 1.61,-1.787 0.93,-0.576 2.2,-0.576 1.71,0 2.64,1.201 0.93,1.191 0.93,3.398 l 0,6.602 -1.81,0 0,-6.543 q 0,-1.572 -0.56,-2.334 -0.55,-0.762 -1.69,-0.762 -1.4,0 -2.21,0.928 -0.81,0.928 -0.81,2.529 l 0,6.182 -1.81,0 0,-6.543 q 0,-1.582 -0.56,-2.334 -0.55,-0.762 -1.71,-0.762 -1.38,0 -2.19,0.938 -0.81,0.928 -0.81,2.519 l 0,6.182 -1.81,0 0,-10.938 1.81,0 0,1.7 q 0.61,-1.006 1.47,-1.485 0.86,-0.478 2.04,-0.478 1.19,0 2.02,0.605 0.84,0.606 1.25,1.758 z m -21.4,4.522 0,-6.622 1.8,0 0,6.553 q 0,1.553 0.6,2.334 0.61,0.772 1.82,0.772 1.45,0 2.29,-0.928 0.85,-0.928 0.85,-2.529 l 0,-6.202 1.8,0 0,10.938 -1.8,0 0,-1.68 q -0.65,0.996 -1.52,1.485 -0.86,0.478 -2,0.478 -1.89,0 -2.86,-1.172 -0.98,-1.172 -0.98,-3.427 z m 4.52,-6.885 0,0 z m -7.79,0.586 0,1.699 q -0.76,-0.391 -1.58,-0.586 -0.83,-0.195 -1.7,-0.195 -1.34,0 -2.02,0.41 -0.66,0.41 -0.66,1.23 0,0.625 0.48,0.987 0.48,0.351 1.92,0.673 l 0.62,0.137 q 1.91,0.41 2.71,1.162 0.81,0.743 0.81,2.08 0,1.524 -1.21,2.413 -1.2,0.888 -3.31,0.888 -0.88,0 -1.83,-0.176 -0.95,-0.166 -2.01,-0.507 l 0,-1.856 q 1,0.518 1.97,0.781 0.96,0.254 1.91,0.254 1.27,0 1.95,-0.429 0.69,-0.44 0.69,-1.231 0,-0.732 -0.5,-1.123 -0.49,-0.391 -2.16,-0.752 l -0.62,-0.146 q -1.67,-0.352 -2.42,-1.075 -0.74,-0.732 -0.74,-2.002 0,-1.543 1.1,-2.382 1.09,-0.84 3.1,-0.84 1,0 1.88,0.146 0.87,0.147 1.62,0.44 z m -17.93,8.974 0,5.801 -1.81,0 0,-15.098 1.81,0 0,1.661 q 0.56,-0.977 1.42,-1.446 0.87,-0.478 2.07,-0.478 2,0 3.24,1.582 1.25,1.582 1.25,4.16 0,2.578 -1.25,4.16 -1.24,1.582 -3.24,1.582 -1.2,0 -2.07,-0.469 -0.86,-0.478 -1.42,-1.455 z m 6.11,-3.818 q 0,-1.982 -0.82,-3.105 -0.81,-1.133 -2.24,-1.133 -1.42,0 -2.24,1.133 -0.81,1.123 -0.81,3.105 0,1.982 0.81,3.115 0.82,1.123 2.24,1.123 1.43,0 2.24,-1.123 0.82,-1.133 0.82,-3.115 z m -13.4,-5.479 1.8,0 0,10.938 -1.8,0 0,-10.938 z m 0,-4.257 1.8,0 0,2.275 -1.8,0 0,-2.275 z m -17.34,6.357 q 0.67,-1.211 1.61,-1.787 0.94,-0.576 2.21,-0.576 1.71,0 2.63,1.201 0.93,1.191 0.93,3.398 l 0,6.602 -1.81,0 0,-6.543 q 0,-1.572 -0.55,-2.334 -0.56,-0.762 -1.7,-0.762 -1.4,0 -2.21,0.928 -0.81,0.928 -0.81,2.529 l 0,6.182 -1.81,0 0,-6.543 q 0,-1.582 -0.55,-2.334 -0.56,-0.762 -1.72,-0.762 -1.38,0 -2.19,0.938 -0.81,0.928 -0.81,2.519 l 0,6.182 -1.81,0 0,-10.938 1.81,0 0,1.7 q 0.62,-1.006 1.48,-1.485 0.86,-0.478 2.04,-0.478 1.19,0 2.02,0.605 0.84,0.606 1.24,1.758 z m -11.47,2.92 0,0.879 -8.26,0 q 0.12,1.855 1.12,2.832 1,0.967 2.79,0.967 1.03,0 2,-0.254 0.98,-0.254 1.93,-0.762 l 0,1.699 q -0.96,0.41 -1.98,0.625 -1.01,0.215 -2.06,0.215 -2.62,0 -4.15,-1.523 -1.52,-1.524 -1.52,-4.121 0,-2.686 1.44,-4.258 1.46,-1.582 3.92,-1.582 2.21,0 3.48,1.426 1.29,1.416 1.29,3.857 z m -1.79,-0.527 q 0,-1.475 -0.83,-2.354 -0.8,-0.879 -2.13,-0.879 -1.51,0 -2.41,0.85 -0.9,0.849 -1.04,2.392 l 6.41,0 z m -9.04,-2.813 q -0.3,-0.176 -0.66,-0.254 -0.35,-0.09 -0.78,-0.09 -1.53,0 -2.35,0.996 -0.81,0.987 -0.81,2.842 l 0,5.762 -1.8,0 0,-10.938 1.8,0 0,1.7 q 0.57,-0.996 1.48,-1.475 0.91,-0.488 2.21,-0.488 0.18,0 0.41,0.03 0.22,0.02 0.49,0.07 l 0,1.846 z m -14.323,-0.42 q -1.445,0 -2.285,1.133 -0.84,1.123 -0.84,3.086 0,1.963 0.831,3.096 0.839,1.123 2.294,1.123 1.433,0 2.273,-1.133 0.84,-1.133 0.84,-3.086 0,-1.943 -0.84,-3.076 -0.84,-1.143 -2.273,-1.143 z m 0,-1.523 q 2.343,0 3.683,1.523 1.34,1.524 1.34,4.219 0,2.686 -1.34,4.219 -1.34,1.523 -3.683,1.523 -2.353,0 -3.691,-1.523 -1.328,-1.533 -1.328,-4.219 0,-2.695 1.328,-4.219 1.338,-1.523 3.691,-1.523 z m -14.941,-3.379 1.973,0 0,12.92 7.099,0 0,1.66 -9.072,0 0,-14.58 z"/>
</svg>
