<?xml version="1.0" encoding="UTF-8" standalone="no"?>
<svg width="600" height="200" viewBox="0 0 600 200"
     xmlns="http://www.w3.org/2000/svg" version="1.1">
  <desc>line box description.</desc>

  <g style="fill:none;stroke:#add8e6">
    <path d="m 150,175 150,-150 150,150"/>
  </g>

  <g style="fill:none;stroke:black">
    <path d="m 145,170 c 5,0 5,10 10,10"/>
    <path d="m 143,173 c 5,0 5,10 10,10"/>
    <path d="m 455,170 c -5,0 -5,10 -10,10"/>
    <path d="m 457,173 c -5,0 -5,10 -10,10"/>
  </g>


  <g style="fill:none;stroke:red">
    <rect x="260" y="70"  height="40" width="80" />
    <rect x="218" y="120" height="40" width="164"/>
  </g>

  <g style="fill:none;stroke:#add8e6">
    <rect x="260" y="65"  height="50" width="80" />
    <rect x="210" y="115" height="50" width="180"/>
  </g>

  <!--
  <text x="300" y="100" style="font-size:40px;line-height:125%;font-family:'DejaVu Sans';text-anchor:middle">The<tspan x="300" y="150">first line</tspan></text>
  -->

  <path d="m 379.47,138.16 v 1.76 h -16.52 q 0.23,3.71 2.23,5.67 2.01,1.93 5.58,1.93 2.07,0 4.01,-0.51 1.95,-0.51 3.86,-1.52 v 3.4 q -1.93,0.82 -3.96,1.25 -2.03,0.43 -4.12,0.43 -5.24,0 -8.3,-3.05 -3.05,-3.05 -3.05,-8.24 0,-5.37 2.89,-8.52 2.91,-3.16 7.83,-3.16 4.42,0 6.97,2.85 2.58,2.83 2.58,7.71 z m -3.59,-1.05 q 0,-2.95 -1.66,-4.71 -1.6,-1.76 -4.26,-1.76 -3.01,0 -4.82,1.7 -1.8,1.7 -2.07,4.79 z m -22.33,-0.31 v 13.2 h -3.59 v -13.09 q 0,-3.1 -1.21,-4.64 -1.21,-1.55 -3.63,-1.55 -2.91,0 -4.59,1.86 -1.68,1.85 -1.68,5.06 v 12.36 h -3.62 v -21.88 h 3.62 v 3.4 q 1.29,-1.97 3.02,-2.95 1.76,-0.97 4.05,-0.97 3.77,0 5.7,2.34 1.93,2.33 1.93,6.86 z m -29.27,-8.68 h 3.59 v 21.88 h -3.59 z m 0,-8.51 h 3.59 v 4.55 h -3.59 z m -11.1,0 h 3.6 v 30.39 h -3.6 z m -24.88,2.3 v 6.21 h 7.4 v 2.8 h -7.4 v 11.87 q 0,2.68 0.72,3.44 0.75,0.76 2.99,0.76 h 3.69 v 3.01 h -3.69 q -4.16,0 -5.74,-1.54 -1.58,-1.57 -1.58,-5.67 v -11.87 h -2.64 v -2.8 h 2.64 v -6.21 z m -10.47,6.86 v 3.4 q -1.52,-0.78 -3.16,-1.17 -1.64,-0.39 -3.4,-0.39 -2.68,0 -4.02,0.82 -1.33,0.82 -1.33,2.46 0,1.25 0.95,1.97 0.96,0.7 3.85,1.35 l 1.23,0.27 q 3.83,0.82 5.43,2.32 1.62,1.49 1.62,4.16 0,3.05 -2.42,4.83 -2.4,1.78 -6.62,1.78 -1.76,0 -3.67,-0.36 -1.9,-0.33 -4,-1.01 v -3.71 q 1.99,1.03 3.92,1.56 1.93,0.51 3.83,0.51 2.54,0 3.91,-0.86 1.36,-0.88 1.36,-2.46 0,-1.47 -0.99,-2.25 -0.98,-0.78 -4.32,-1.5 l -1.25,-0.29 q -3.34,-0.71 -4.82,-2.15 -1.49,-1.47 -1.49,-4.01 0,-3.08 2.19,-4.76 2.19,-1.68 6.21,-1.68 1.99,0 3.75,0.29 1.76,0.29 3.24,0.88 z m -17.75,2.71 q -0.61,-0.35 -1.33,-0.5 -0.7,-0.18 -1.56,-0.18 -3.05,0 -4.69,1.99 -1.62,1.98 -1.62,5.69 v 11.52 h -3.61 v -21.88 h 3.61 v 3.4 q 1.13,-1.99 2.95,-2.95 1.81,-0.97 4.41,-0.97 0.37,0 0.82,0.1 0.45,0 1,0.13 z m -20.24,-3.36 v 21.88 h -3.61 v -19.08 h -9.86 v 19.08 h -3.62 v -19.08 h -3.43 v -2.8 h 3.43 v -1.52 q 0,-3.57 1.68,-5.27 1.7,-1.72 5.2,-1.72 h 3.61 v 2.99 h -3.44 q -1.93,0 -2.69,0.78 -0.74,0.78 -0.74,2.81 v 1.93 z m -3.61,-8.47 h 3.61 v 4.55 h -3.61 z m 98.87,-31.486 v 1.758 h -16.53 q 0.24,3.711 2.23,5.664 2.01,1.934 5.59,1.934 2.07,0 4,-0.508 1.95,-0.508 3.87,-1.524 v 3.399 q -1.94,0.82 -3.97,1.253 -2.03,0.43 -4.12,0.43 -5.23,0 -8.3,-3.05 -3.05,-3.047 -3.05,-8.243 0,-5.371 2.89,-8.515 2.91,-3.164 7.84,-3.164 4.41,0 6.97,2.851 2.58,2.832 2.58,7.715 z m -3.6,-1.055 q 0,-2.949 -1.66,-4.707 -1.6,-1.757 -4.25,-1.757 -3.01,0 -4.83,1.699 -1.8,1.699 -2.07,4.785 z m -22.32,-0.312 v 13.203 h -3.59 v -13.086 q 0,-3.105 -1.22,-4.648 -1.21,-1.543 -3.63,-1.543 -2.91,0 -4.59,1.855 -1.68,1.856 -1.68,5.059 v 12.363 h -3.61 v -30.391 h 3.61 v 11.914 q 1.29,-1.972 3.03,-2.949 1.76,-0.976 4.04,-0.976 3.77,0 5.71,2.343 1.93,2.325 1.93,6.856 z m -46.52,-15.957 h 24.66 v 3.32 h -10.35 v 25.84 h -3.96 v -25.84 h -10.35 z"/>

</svg>

