<?xml version="1.0" encoding="UTF-8" standalone="no"?>
<!-- Created with Inkscape (http://www.inkscape.org/) -->

<svg
   xmlns="http://www.w3.org/2000/svg"
   xmlns:xlink="http://www.w3.org/1999/xlink"
   width="600"
   height="300">
  <defs>
    <marker
       refX="0"
       refY="0"
       orient="auto"
       id="Arrow2Mend"
       style="overflow:visible">
      <path
         d="M 8.7185878,4.0337352 -2.2072895,0.01601326 8.7185884,-4.0017078 c -1.7454984,2.3720609 -1.7354408,5.6174519 -6e-7,8.035443 z"
         transform="scale(-0.6,-0.6)"
         id="path3845"
         style="fill-rule:evenodd;stroke-width:0.625;stroke-linejoin:round" />
    </marker>
    <linearGradient
       id="gradientVector">
      <stop
         style="stop-color:#a080ff"
         offset="0" />
      <stop
         style="stop-color:#f5d5bd"
         offset="0.4" />
      <stop
         style="stop-color:#b2efdc"
         offset="1" />
    </linearGradient>
    <linearGradient
       x1="50"
       y1="150"
       x2="250"
       y2="150"
       id="linearGradient"
       xlink:href="#gradientVector"
       gradientUnits="userSpaceOnUse" />
    <radialGradient
       cx="450"
       cy="150"
       r="80"
       fx="450"
       fy="150"
       id="radialGradient"
       xlink:href="#gradientVector"
       gradientUnits="userSpaceOnUse"
       gradientTransform="matrix(1.25,0,0,1.25,-112.5,-40)" />
  </defs>
  <rect
     width="200"
     height="200"
     x="50"
     y="50"
     style="fill:url(#linearGradient)" />
  <path
     d="m 130,150 c 0,66.66667 0,53.33333 0,120"
     id="path6089"
     style="fill:none;stroke:#000000;stroke-width:2;marker-end:url(#Arrow2Mend)" />
  <text
     x="170"
     y="200"
     id="text6091"
     xml:space="preserve"
     style="font-size:20px;letter-spacing:0px;word-spacing:0px;text-anchor:middle;fill:#000000;font-family:Nimbus Roman No9 L;-inkscape-font-specification:Nimbus Roman No9 L"><tspan
       x="170"
       y="200"
       id="tspan6093">Normal</tspan></text>
  <text
     x="190"
     y="140"
     id="text6095"
     xml:space="preserve"
     style="font-size:20px;letter-spacing:0px;word-spacing:0px;text-anchor:middle;fill:#000000;font-family:Nimbus Roman No9 L;-inkscape-font-specification:Nimbus Roman No9 L"><tspan
       x="190"
       y="140"
       id="tspan6097">Vector</tspan></text>
  <path
     d="m 50,150 220,0"
     id="path7115"
     style="fill:none;stroke:#000000;stroke-width:2;marker-end:url(#Arrow2Mend)" />
  <path
     d="m 104,250 a 4,4 0 1 1 -8,0 4,4 0 1 1 8,0 z"
     transform="translate(-50,-100)"
     id="path6103"
     style="fill:#a282fd;stroke:#000000;stroke-width:2" />
  <path
     d="m 104,80 a 4,4 0 1 1 -8,0 4,4 0 1 1 8,0 z"
     transform="translate(30,70)"
     id="path6101"
     style="fill:#f5d5bd;stroke:#000000;stroke-width:2" />
  <path
     d="m 104,50 a 4,4 0 1 1 -8,0 4,4 0 1 1 8,0 z"
     transform="translate(150,100)"
     id="path6099"
     style="fill:#b2efdc;stroke:#000000;stroke-width:2" />
  <rect
     width="200"
     height="200"
     x="350"
     y="50"
     id="rect7325"
     style="fill:url(#radialGradient)" />
  <text
     x="520"
     y="140"
     id="text7333"
     xml:space="preserve"
     style="font-size:20px;text-anchor:middle;fill:#000000;font-family:Nimbus Roman No9 L"><tspan
       x="520"
       y="140"
       id="tspan7335">Vector</tspan></text>
  <path
     d="m 450,150 120,0"
     id="path7337"
     style="fill:none;stroke:#000000;stroke-width:2;marker-end:url(#Arrow2Mend)" />
  <path
     d="m 104,250 a 4,4 0 1 1 -8,0 4,4 0 1 1 8,0 z"
     transform="translate(350,-100)"
     id="path7339"
     style="fill:#a282fd;stroke:#000000;stroke-width:2" />
  <path
     d="m 104,50 a 4,4 0 1 1 -8,0 4,4 0 1 1 8,0 z"
     transform="translate(450,100)"
     id="path7343"
     style="fill:#b2efdc;stroke:#000000;stroke-width:2" />
  <path
     style="fill:none;stroke:#000000;stroke-width:2"
     id="path8298"
     d="m 490,150 a 40,40 0 1 1 -80,0 40,40 0 1 1 80,0 z" />
  <path
     d="m 104,80 a 4,4 0 1 1 -8,0 4,4 0 1 1 8,0 z"
     transform="translate(390,70)"
     id="path7341"
     style="fill:#f5d5bd;stroke:#000000;stroke-width:2" />
  <text
     x="400"
     y="110"
     id="text4888"
     xml:space="preserve"
     style="font-size:20px;text-anchor:middle;font-family:Nimbus Roman No9 L"><tspan
       x="400"
       y="110"
       id="tspan4890">Normal</tspan></text>
</svg>
