<?xml version="1.0" encoding="UTF-8" standalone="no"?>
<svg
   xmlns="http://www.w3.org/2000/svg"
   width="450"
   height="300">
  <defs>
    <marker
       id="Arrow2Mstart"
       orient="auto"
       refY="0.0"
       refX="0.0"
       style="overflow:visible">
      <path
         d="M 8.7,4 L -2.2,0 L 8.7,-4 C 7,-1.6 7,1.6 8.7,4 z "
         transform="scale(0.6)"/>
    </marker>
    <marker
       id="Arrow2Mend"
       orient="auto"
       refY="0.0"
       refX="0.0"
       style="overflow:visible;">
      <path
         d="M 8.7,4 L -2.2,0 L 8.7,-4 C 7,-1.6 7,1.6 8.7,4 z "
         transform="scale(0.6) rotate(180)"/>
    </marker>
  </defs>
  <path
      style="fill:none;stroke:black"
      d="m 85,100 330,0"/>
  <g style="fill:none;stroke:black;stroke-width:1;stroke-dasharray:3, 1">
    <path d="M 100,250 100,50" style="opacity:0.5"/>
    <path d="M 200,250 200,50"/>
    <path d="M 300,250 300,50"/>
    <path d="M 400,250 400,50" style="opacity:0.5"/>
  </g>
  <path
      style="fill:none;stroke:black;stroke-width:2;marker-end:url(#Arrow2Mend)"
      d="m 200,100 75,0"/>
  <path
      style="fill:none;stroke:black;stroke-width:2;marker-end:url(#Arrow2Mend)"
      d="m 200,100 0,75"/>
  <circle cx="200" cy="100" r="3"/>
  <path
      style="fill:none;stroke:black;stroke-width:1.5;marker-end:url(#Arrow2Mend)"
      d="m 224,240 -21,0"/>
  <path
      style="fill:none;stroke:black;stroke-width:1.5;marker-end:url(#Arrow2Mend)"
      d="m 276,240 21,0"/>
  <g style="font-size:16px;text-anchor:middle;font-family:DejaVu Sans">
    <text x="175" y="92">(0,0)</text>
    <text x="255" y="92">x</text>
    <text x="190" y="155">y</text>
    <text x="250" y="245">Pitch</text>
    <text>
      <tspan x="53" y="95">Reference</tspan>
      <tspan x="53" y="112.5">line</tspan>
    </text>
  </g>
</svg>
