<?xml version="1.0" encoding="UTF-8" standalone="no"?>

<svg width="300" height="300" xmlns="http://www.w3.org/2000/svg">
  <defs>
    <mesh id="example" x="50" y="50" gradientUnits="userSpaceOnUse"> <!-- x, y used for initial point in first patch. -->
      <meshrow> <!-- No attributes, used only to define begin/end of row. -->
	<meshpatch>
	  <stop path="c  25,-25  75, 25  100,0" stop-color="lightblue" />
	  <stop path="c  25, 25 -25, 75  0,100" stop-color="purple" />
	  <stop path="c -25, 25 -75,-25 -100,0" stop-color="red" />
	  <stop path="c -25,-25, 25,-75"        stop-color="purple" /> <!-- Last point not needed (closed path). -->
	</meshpatch>
	<meshpatch>
	  <stop path="c  25,-25  75, 25  100,0" /> <!-- stop-color from previous patch. -->
	  <stop path="c  25, 25 -25, 75  0,100" stop-color="lightblue" />
	  <stop path="c -25, 25 -75,-25"        stop-color="purple" /> <!-- Last point not needed (closed path). -->
	  <!-- Last path (left side) taken from right side of previous path (with points reversed). -->
	</meshpatch>
	<!-- Additional patches in first row -->
      </meshrow>
      <meshrow> <!-- New row. -->
	<meshpatch>
	  <!-- First path (top side) taken from bottom path of patch above. -->
	  <stop path="c  25, 25 -25, 75  0,100" /> <!-- stop-color from patch above. -->
	  <stop path="c -25, 25 -75,-25 -100,0" stop-color="purple" />
	  <stop path="c -25,-25, 25,-75"        stop-color="lightblue" /> <!-- Last point not needed (closed path). -->
	</meshpatch>
	<meshpatch>
	  <!-- First path (top side) taken from bottom path of patch above (with points reversed). -->
	  <stop path="c  25, 25 -25, 75  0,100" /> <!-- stop-color from patch above. -->
	  <stop path="c -25, 25 -75,-25"        stop-color="lightblue" /> <!-- Last point not needed (closed path). -->
	  <!-- Last path (left side) taken from right side of previous path (with points reversed). -->
	</meshpatch>
	<!-- Additional patches in second row -->
      </meshrow>
      <!-- Additional rows -->
    </mesh>
    <marker id="Arrow" refX="0" refY="0" orient="auto" style="overflow:visible">
      <path d="m 0,0 -5,-5 12.5,5 -12.5,5 z"/>
    </marker>
  </defs>
  <rect x="0" y="0" width="300" height="300" style="fill:url(#example)"/>
  <g style="fill:none;stroke:black;marker-end:url(#Arrow)">
    <path d="m 80,70 40,0 c 5.54,0 10,4.46 10,10 l 0,40 c 0,5.54 -4.46,10 -10,10 l -40,0 c -5.54,0 -10,-4.46 -10,-10 l 0,-40"/>
    <path d="m 180,70 40,0 c 5.54,0 10,4.46 10,10 l 0,40 c 0,5.54 -4.46,10 -10,10 l -40,0"/>
    <path d="m 130,180 0,40 c 0,5.54 -4.46,10 -10,10 l -40,0 c -5.54,0 -10,-4.46 -10,-10 l 0,-40"/>
    <path d="m 230,180 0,40 c 0,5.54 -4.46,10 -10,10 l -40,0"/>
  </g>
</svg>
