<?xml version="1.0" encoding="UTF-8" standalone="no"?>
<!-- Created with Inkscape (http://www.inkscape.org/) -->

<svg
   xmlns="http://www.w3.org/2000/svg"
   xmlns:xlink="http://www.w3.org/1999/xlink"
   version="1.1"
   width="600"
   height="400">
  <defs>>
    <marker
       refX="0"
       refY="0"
       orient="auto"
       id="Arrow2Mend"
       style="overflow:visible">
      <path
         d="M 8.7185878,4.0337352 -2.2072895,0.01601326 8.7185884,-4.0017078 c -1.7454984,2.3720609 -1.7354408,5.6174519 -6e-7,8.035443 z"
         transform="scale(-0.6,-0.6)"
         id="path3812"
         style="fill-rule:evenodd;stroke-width:0.625;stroke-linejoin:round" />
    </marker>
    <linearGradient
       id="linearGradient8358">
      <stop
         style="stop-color:#bbffee"
         offset="0" />
      <stop
         style="stop-color:#bbffee"
         offset="0.5" />
      <stop
         style="stop-color:#ffddcc"
         offset="0.8" />
      <stop
         style="stop-color:#aa88ff"
         offset="1" />
    </linearGradient>
    <radialGradient
       cx="300"
       cy="200"
       r="150"
       fx="400"
       fy="200"
       id="radialGradient"
       xlink:href="#linearGradient8358"
       gradientUnits="userSpaceOnUse" />
  </defs>
  <g
     id="layer1">
    <rect
       width="300"
       height="300"
       x="150"
       y="50"
       id="GradientRect"
       style="fill:url(#radialGradient);stroke:#000000;stroke-width:2" />
    <path
       d="m 425,200 a 75,75 0 1 1 -150,0 75,75 0 1 1 150,0 z"
       id="Focus-Circle"
       style="fill:none;stroke:#000000;stroke-width:2" />
    <path
       d="m 450,200 a 150,150 0 1 1 -300,0 150,150 0 1 1 300,0 z"
       id="Outer-Circle"
       style="fill:none;stroke:#000000;stroke-width:2" />
    <path
       d="m 305,200 a 5,5 0 1 1 -10,0 5,5 0 1 1 10,0 z"
       id="Center"
       style="fill:none;stroke:#000000;stroke-width:2" />
    <path
       d="m 345,195 10,10"
       id="X1"
       style="fill:none;stroke:#000000;stroke-width:2" />
    <path
       d="m 355,195 -10,10"
       id="X2"
       style="fill:none;stroke:#000000;stroke-width:2" />
    <path
       d="m 350,200 33.63081,-63"
       id="Arrow-fr"
       style="fill:none;stroke:#000000;stroke-width:2;marker-end:url(#Arrow2Mend)" />
    <path
       d="M 300,200 403.47278,303.40637"
       id="Arrow-r"
       style="fill:none;stroke:#000000;stroke-width:2;marker-end:url(#Arrow2Mend)" />
    <text
       x="330"
       y="260"
       id="text_r"
       xml:space="preserve"
       style="font-size:20px;text-anchor:middle;fill:#000000;font-family:Nimbus Roman No9 L"><tspan
         x="330"
         y="260"
         id="tspan4462">'r'</tspan></text>
    <text
       x="385"
       y="175"
       id="text_fr"
       xml:space="preserve"
       style="font-size:20px;text-anchor:middle;fill:#000000;font-family:Nimbus Roman No9 L"><tspan
         x="385"
         y="175"
         id="tspan4466">'fr'</tspan></text>
    <path
       d="M 350,125 301.46082,52.664011"
       id="Vector-Arrow2"
       style="fill:none;stroke:#000000;stroke-width:2;stroke-dasharray:3, 1;marker-end:url(#Arrow2Mend)" />
    <text
       x="280"
       y="105"
       id="text_Vectors"
       xml:space="preserve"
       style="font-size:20px;text-anchor:middle;fill:#000000;font-family:Nimbus Roman No9 L"><tspan
         x="280"
         y="105"
         id="tspan4480">Vectors</tspan></text>
    <path
       d="M 296.66401,146.66401 196.85923,95.398406"
       id="Vector-Arrow1"
       style="fill:none;stroke:#000000;stroke-width:2;stroke-dasharray:3, 1;marker-end:url(#Arrow2Mend)" />
  </g>
</svg>
